G04 This is an RS-274x file exported by *
G04 gerbv version 2.6.2 *
G04 More information is available about gerbv at *
G04 http://gerbv.geda-project.org/ *
G04 --End of header info--*
%MOIN*%
%FSLAX34Y34*%
%IPPOS*%
G04 --Define apertures--*
%ADD10C,0.0004*%
%ADD11C,0.0059*%
G04 --Start main section--*
G54D10*
G36*
G01X0004300Y0001755D02*
G01X0003875Y0001755D01*
G01X0003875Y0002295D01*
G01X0004300Y0002295D01*
G01X0004300Y0001755D01*
G01X0004300Y0001755D01*
G37*
G01X0004300Y0001755D02*
G01X0003875Y0001755D01*
G01X0003875Y0001755D02*
G01X0003875Y0002295D01*
G01X0003875Y0002295D02*
G01X0004300Y0002295D01*
G01X0004300Y0002295D02*
G01X0004300Y0001755D01*
G36*
G01X0005100Y0001755D02*
G01X0004675Y0001755D01*
G01X0004675Y0002295D01*
G01X0005100Y0002295D01*
G01X0005100Y0001755D01*
G01X0005100Y0001755D01*
G37*
G01X0005100Y0001755D02*
G01X0004675Y0001755D01*
G01X0004675Y0001755D02*
G01X0004675Y0002295D01*
G01X0004675Y0002295D02*
G01X0005100Y0002295D01*
G01X0005100Y0002295D02*
G01X0005100Y0001755D01*
G36*
G01X-004350Y0001770D02*
G01X-004775Y0001770D01*
G01X-004775Y0002310D01*
G01X-004350Y0002310D01*
G01X-004350Y0001770D01*
G01X-004350Y0001770D01*
G37*
G01X-004350Y0001770D02*
G01X-004775Y0001770D01*
G01X-004775Y0001770D02*
G01X-004775Y0002310D01*
G01X-004775Y0002310D02*
G01X-004350Y0002310D01*
G01X-004350Y0002310D02*
G01X-004350Y0001770D01*
G36*
G01X-003550Y0001770D02*
G01X-003975Y0001770D01*
G01X-003975Y0002310D01*
G01X-003550Y0002310D01*
G01X-003550Y0001770D01*
G01X-003550Y0001770D01*
G37*
G01X-003550Y0001770D02*
G01X-003975Y0001770D01*
G01X-003975Y0001770D02*
G01X-003975Y0002310D01*
G01X-003975Y0002310D02*
G01X-003550Y0002310D01*
G01X-003550Y0002310D02*
G01X-003550Y0001770D01*
G36*
G01X-000690Y0001850D02*
G01X-001335Y0001850D01*
G01X-001335Y0002125D01*
G01X-000690Y0002125D01*
G01X-000690Y0001850D01*
G01X-000690Y0001850D01*
G37*
G01X-000690Y0001850D02*
G01X-001335Y0001850D01*
G01X-001335Y0001850D02*
G01X-001335Y0002125D01*
G01X-001335Y0002125D02*
G01X-000690Y0002125D01*
G01X-000690Y0002125D02*
G01X-000690Y0001850D01*
G36*
G01X0001440Y0001850D02*
G01X0000795Y0001850D01*
G01X0000795Y0002125D01*
G01X0001440Y0002125D01*
G01X0001440Y0001850D01*
G01X0001440Y0001850D01*
G37*
G01X0001440Y0001850D02*
G01X0000795Y0001850D01*
G01X0000795Y0001850D02*
G01X0000795Y0002125D01*
G01X0000795Y0002125D02*
G01X0001440Y0002125D01*
G01X0001440Y0002125D02*
G01X0001440Y0001850D01*
G36*
G01X0002730Y0002295D02*
G01X0002300Y0002295D01*
G01X0002300Y0002835D01*
G01X0002730Y0002835D01*
G01X0002730Y0002295D01*
G01X0002730Y0002295D01*
G37*
G01X0002730Y0002295D02*
G01X0002300Y0002295D01*
G01X0002300Y0002295D02*
G01X0002300Y0002835D01*
G01X0002300Y0002835D02*
G01X0002730Y0002835D01*
G01X0002730Y0002835D02*
G01X0002730Y0002295D01*
G36*
G01X0003530Y0002295D02*
G01X0003100Y0002295D01*
G01X0003100Y0002835D01*
G01X0003530Y0002835D01*
G01X0003530Y0002295D01*
G01X0003530Y0002295D01*
G37*
G01X0003530Y0002295D02*
G01X0003100Y0002295D01*
G01X0003100Y0002295D02*
G01X0003100Y0002835D01*
G01X0003100Y0002835D02*
G01X0003530Y0002835D01*
G01X0003530Y0002835D02*
G01X0003530Y0002295D01*
G36*
G01X-000690Y0002555D02*
G01X-001335Y0002555D01*
G01X-001335Y0002830D01*
G01X-000690Y0002830D01*
G01X-000690Y0002555D01*
G01X-000690Y0002555D01*
G37*
G01X-000690Y0002555D02*
G01X-001335Y0002555D01*
G01X-001335Y0002555D02*
G01X-001335Y0002830D01*
G01X-001335Y0002830D02*
G01X-000690Y0002830D01*
G01X-000690Y0002830D02*
G01X-000690Y0002555D01*
G36*
G01X0001440Y0002555D02*
G01X0000795Y0002555D01*
G01X0000795Y0002830D01*
G01X0001440Y0002830D01*
G01X0001440Y0002555D01*
G01X0001440Y0002555D01*
G37*
G01X0001440Y0002555D02*
G01X0000795Y0002555D01*
G01X0000795Y0002555D02*
G01X0000795Y0002830D01*
G01X0000795Y0002830D02*
G01X0001440Y0002830D01*
G01X0001440Y0002830D02*
G01X0001440Y0002555D01*
G36*
G01X-004350Y0003250D02*
G01X-004775Y0003250D01*
G01X-004775Y0003790D01*
G01X-004350Y0003790D01*
G01X-004350Y0003250D01*
G01X-004350Y0003250D01*
G37*
G01X-004350Y0003250D02*
G01X-004775Y0003250D01*
G01X-004775Y0003250D02*
G01X-004775Y0003790D01*
G01X-004775Y0003790D02*
G01X-004350Y0003790D01*
G01X-004350Y0003790D02*
G01X-004350Y0003250D01*
G36*
G01X-003550Y0003250D02*
G01X-003975Y0003250D01*
G01X-003975Y0003790D01*
G01X-003550Y0003790D01*
G01X-003550Y0003250D01*
G01X-003550Y0003250D01*
G37*
G01X-003550Y0003250D02*
G01X-003975Y0003250D01*
G01X-003975Y0003250D02*
G01X-003975Y0003790D01*
G01X-003975Y0003790D02*
G01X-003550Y0003790D01*
G01X-003550Y0003790D02*
G01X-003550Y0003250D01*
G36*
G01X-000690Y0003340D02*
G01X-001009Y0003340D01*
G01X-001065Y0003340D01*
G01X-001117Y0003340D01*
G01X-001166Y0003340D01*
G01X-001210Y0003341D01*
G01X-001249Y0003341D01*
G01X-001281Y0003342D01*
G01X-001306Y0003342D01*
G01X-001323Y0003343D01*
G01X-001331Y0003343D01*
G01X-001332Y0003343D01*
G01X-001333Y0003349D01*
G01X-001333Y0003363D01*
G01X-001334Y0003385D01*
G01X-001335Y0003413D01*
G01X-001335Y0003445D01*
G01X-001335Y0003481D01*
G01X-001335Y0003615D01*
G01X-000690Y0003615D01*
G01X-000690Y0003340D01*
G01X-000690Y0003340D01*
G37*
G01X-000690Y0003340D02*
G01X-001009Y0003340D01*
G01X-001009Y0003340D02*
G01X-001065Y0003340D01*
G01X-001065Y0003340D02*
G01X-001117Y0003340D01*
G01X-001117Y0003340D02*
G01X-001166Y0003340D01*
G01X-001166Y0003340D02*
G01X-001210Y0003341D01*
G01X-001210Y0003341D02*
G01X-001249Y0003341D01*
G01X-001249Y0003341D02*
G01X-001281Y0003342D01*
G01X-001281Y0003342D02*
G01X-001306Y0003342D01*
G01X-001306Y0003342D02*
G01X-001323Y0003343D01*
G01X-001323Y0003343D02*
G01X-001331Y0003343D01*
G01X-001331Y0003343D02*
G01X-001332Y0003343D01*
G01X-001332Y0003343D02*
G01X-001333Y0003349D01*
G01X-001333Y0003349D02*
G01X-001333Y0003363D01*
G01X-001333Y0003363D02*
G01X-001334Y0003385D01*
G01X-001334Y0003385D02*
G01X-001335Y0003413D01*
G01X-001335Y0003413D02*
G01X-001335Y0003445D01*
G01X-001335Y0003445D02*
G01X-001335Y0003481D01*
G01X-001335Y0003481D02*
G01X-001335Y0003615D01*
G01X-001335Y0003615D02*
G01X-000690Y0003615D01*
G01X-000690Y0003615D02*
G01X-000690Y0003340D01*
G36*
G01X0001440Y0003340D02*
G01X0001121Y0003340D01*
G01X0001065Y0003340D01*
G01X0001013Y0003340D01*
G01X0000964Y0003340D01*
G01X0000920Y0003341D01*
G01X0000881Y0003341D01*
G01X0000849Y0003342D01*
G01X0000824Y0003342D01*
G01X0000807Y0003343D01*
G01X0000799Y0003343D01*
G01X0000798Y0003343D01*
G01X0000797Y0003349D01*
G01X0000797Y0003363D01*
G01X0000796Y0003385D01*
G01X0000795Y0003413D01*
G01X0000795Y0003445D01*
G01X0000795Y0003481D01*
G01X0000795Y0003615D01*
G01X0001440Y0003615D01*
G01X0001440Y0003340D01*
G01X0001440Y0003340D01*
G37*
G01X0001440Y0003340D02*
G01X0001121Y0003340D01*
G01X0001121Y0003340D02*
G01X0001065Y0003340D01*
G01X0001065Y0003340D02*
G01X0001013Y0003340D01*
G01X0001013Y0003340D02*
G01X0000964Y0003340D01*
G01X0000964Y0003340D02*
G01X0000920Y0003341D01*
G01X0000920Y0003341D02*
G01X0000881Y0003341D01*
G01X0000881Y0003341D02*
G01X0000849Y0003342D01*
G01X0000849Y0003342D02*
G01X0000824Y0003342D01*
G01X0000824Y0003342D02*
G01X0000807Y0003343D01*
G01X0000807Y0003343D02*
G01X0000799Y0003343D01*
G01X0000799Y0003343D02*
G01X0000798Y0003343D01*
G01X0000798Y0003343D02*
G01X0000797Y0003349D01*
G01X0000797Y0003349D02*
G01X0000797Y0003363D01*
G01X0000797Y0003363D02*
G01X0000796Y0003385D01*
G01X0000796Y0003385D02*
G01X0000795Y0003413D01*
G01X0000795Y0003413D02*
G01X0000795Y0003445D01*
G01X0000795Y0003445D02*
G01X0000795Y0003481D01*
G01X0000795Y0003481D02*
G01X0000795Y0003615D01*
G01X0000795Y0003615D02*
G01X0001440Y0003615D01*
G01X0001440Y0003615D02*
G01X0001440Y0003340D01*
G36*
G01X0004300Y0003355D02*
G01X0003875Y0003355D01*
G01X0003875Y0003890D01*
G01X0004300Y0003890D01*
G01X0004300Y0003355D01*
G01X0004300Y0003355D01*
G37*
G01X0004300Y0003355D02*
G01X0003875Y0003355D01*
G01X0003875Y0003355D02*
G01X0003875Y0003890D01*
G01X0003875Y0003890D02*
G01X0004300Y0003890D01*
G01X0004300Y0003890D02*
G01X0004300Y0003355D01*
G36*
G01X0005100Y0003355D02*
G01X0004675Y0003355D01*
G01X0004675Y0003890D01*
G01X0005100Y0003890D01*
G01X0005100Y0003355D01*
G01X0005100Y0003355D01*
G37*
G01X0005100Y0003355D02*
G01X0004675Y0003355D01*
G01X0004675Y0003355D02*
G01X0004675Y0003890D01*
G01X0004675Y0003890D02*
G01X0005100Y0003890D01*
G01X0005100Y0003890D02*
G01X0005100Y0003355D01*
G36*
G01X0002730Y0003895D02*
G01X0002300Y0003895D01*
G01X0002300Y0004430D01*
G01X0002730Y0004430D01*
G01X0002730Y0003895D01*
G01X0002730Y0003895D01*
G37*
G01X0002730Y0003895D02*
G01X0002300Y0003895D01*
G01X0002300Y0003895D02*
G01X0002300Y0004430D01*
G01X0002300Y0004430D02*
G01X0002730Y0004430D01*
G01X0002730Y0004430D02*
G01X0002730Y0003895D01*
G36*
G01X0003530Y0003895D02*
G01X0003100Y0003895D01*
G01X0003100Y0004430D01*
G01X0003530Y0004430D01*
G01X0003530Y0003895D01*
G01X0003530Y0003895D01*
G37*
G01X0003530Y0003895D02*
G01X0003100Y0003895D01*
G01X0003100Y0003895D02*
G01X0003100Y0004430D01*
G01X0003100Y0004430D02*
G01X0003530Y0004430D01*
G01X0003530Y0004430D02*
G01X0003530Y0003895D01*
G36*
G01X-000690Y0004045D02*
G01X-001335Y0004045D01*
G01X-001335Y0004320D01*
G01X-000690Y0004320D01*
G01X-000690Y0004045D01*
G01X-000690Y0004045D01*
G37*
G01X-000690Y0004045D02*
G01X-001335Y0004045D01*
G01X-001335Y0004045D02*
G01X-001335Y0004320D01*
G01X-001335Y0004320D02*
G01X-000690Y0004320D01*
G01X-000690Y0004320D02*
G01X-000690Y0004045D01*
G36*
G01X0001440Y0004045D02*
G01X0000795Y0004045D01*
G01X0000795Y0004320D01*
G01X0001440Y0004320D01*
G01X0001440Y0004045D01*
G01X0001440Y0004045D01*
G37*
G01X0001440Y0004045D02*
G01X0000795Y0004045D01*
G01X0000795Y0004045D02*
G01X0000795Y0004320D01*
G01X0000795Y0004320D02*
G01X0001440Y0004320D01*
G01X0001440Y0004320D02*
G01X0001440Y0004045D01*
G36*
G01X-004350Y0004730D02*
G01X-004775Y0004730D01*
G01X-004775Y0005270D01*
G01X-004350Y0005270D01*
G01X-004350Y0004730D01*
G01X-004350Y0004730D01*
G37*
G01X-004350Y0004730D02*
G01X-004775Y0004730D01*
G01X-004775Y0004730D02*
G01X-004775Y0005270D01*
G01X-004775Y0005270D02*
G01X-004350Y0005270D01*
G01X-004350Y0005270D02*
G01X-004350Y0004730D01*
G36*
G01X-003550Y0004730D02*
G01X-003975Y0004730D01*
G01X-003975Y0005270D01*
G01X-003550Y0005270D01*
G01X-003550Y0004730D01*
G01X-003550Y0004730D01*
G37*
G01X-003550Y0004730D02*
G01X-003975Y0004730D01*
G01X-003975Y0004730D02*
G01X-003975Y0005270D01*
G01X-003975Y0005270D02*
G01X-003550Y0005270D01*
G01X-003550Y0005270D02*
G01X-003550Y0004730D01*
G36*
G01X-000690Y0004835D02*
G01X-001335Y0004835D01*
G01X-001335Y0005110D01*
G01X-000690Y0005110D01*
G01X-000690Y0004835D01*
G01X-000690Y0004835D01*
G37*
G01X-000690Y0004835D02*
G01X-001335Y0004835D01*
G01X-001335Y0004835D02*
G01X-001335Y0005110D01*
G01X-001335Y0005110D02*
G01X-000690Y0005110D01*
G01X-000690Y0005110D02*
G01X-000690Y0004835D01*
G36*
G01X0001440Y0004835D02*
G01X0000795Y0004835D01*
G01X0000795Y0005110D01*
G01X0001440Y0005110D01*
G01X0001440Y0004835D01*
G01X0001440Y0004835D01*
G37*
G01X0001440Y0004835D02*
G01X0000795Y0004835D01*
G01X0000795Y0004835D02*
G01X0000795Y0005110D01*
G01X0000795Y0005110D02*
G01X0001440Y0005110D01*
G01X0001440Y0005110D02*
G01X0001440Y0004835D01*
G36*
G01X0004298Y0005463D02*
G01X0004300Y0004925D01*
G01X0003875Y0004925D01*
G01X0003875Y0005465D01*
G01X0004298Y0005463D01*
G01X0004298Y0005463D01*
G37*
G01X0004298Y0005463D02*
G01X0004300Y0004925D01*
G01X0004300Y0004925D02*
G01X0003875Y0004925D01*
G01X0003875Y0004925D02*
G01X0003875Y0005465D01*
G01X0003875Y0005465D02*
G01X0004298Y0005463D01*
G36*
G01X0005098Y0005463D02*
G01X0005100Y0004925D01*
G01X0004675Y0004925D01*
G01X0004675Y0005465D01*
G01X0005098Y0005463D01*
G01X0005098Y0005463D01*
G37*
G01X0005098Y0005463D02*
G01X0005100Y0004925D01*
G01X0005100Y0004925D02*
G01X0004675Y0004925D01*
G01X0004675Y0004925D02*
G01X0004675Y0005465D01*
G01X0004675Y0005465D02*
G01X0005098Y0005463D01*
G36*
G01X0002730Y0005465D02*
G01X0002300Y0005465D01*
G01X0002300Y0006000D01*
G01X0002730Y0006000D01*
G01X0002730Y0005465D01*
G01X0002730Y0005465D01*
G37*
G01X0002730Y0005465D02*
G01X0002300Y0005465D01*
G01X0002300Y0005465D02*
G01X0002300Y0006000D01*
G01X0002300Y0006000D02*
G01X0002730Y0006000D01*
G01X0002730Y0006000D02*
G01X0002730Y0005465D01*
G36*
G01X0003530Y0005465D02*
G01X0003100Y0005465D01*
G01X0003100Y0006000D01*
G01X0003530Y0006000D01*
G01X0003530Y0005465D01*
G01X0003530Y0005465D01*
G37*
G01X0003530Y0005465D02*
G01X0003100Y0005465D01*
G01X0003100Y0005465D02*
G01X0003100Y0006000D01*
G01X0003100Y0006000D02*
G01X0003530Y0006000D01*
G01X0003530Y0006000D02*
G01X0003530Y0005465D01*
G36*
G01X-000690Y0005535D02*
G01X-001335Y0005535D01*
G01X-001335Y0005810D01*
G01X-000690Y0005810D01*
G01X-000690Y0005535D01*
G01X-000690Y0005535D01*
G37*
G01X-000690Y0005535D02*
G01X-001335Y0005535D01*
G01X-001335Y0005535D02*
G01X-001335Y0005810D01*
G01X-001335Y0005810D02*
G01X-000690Y0005810D01*
G01X-000690Y0005810D02*
G01X-000690Y0005535D01*
G36*
G01X0001440Y0005535D02*
G01X0000795Y0005535D01*
G01X0000795Y0005810D01*
G01X0001440Y0005810D01*
G01X0001440Y0005535D01*
G01X0001440Y0005535D01*
G37*
G01X0001440Y0005535D02*
G01X0000795Y0005535D01*
G01X0000795Y0005535D02*
G01X0000795Y0005810D01*
G01X0000795Y0005810D02*
G01X0001440Y0005810D01*
G01X0001440Y0005810D02*
G01X0001440Y0005535D01*
G36*
G01X-004350Y0006210D02*
G01X-004775Y0006210D01*
G01X-004775Y0006750D01*
G01X-004350Y0006750D01*
G01X-004350Y0006210D01*
G01X-004350Y0006210D01*
G37*
G01X-004350Y0006210D02*
G01X-004775Y0006210D01*
G01X-004775Y0006210D02*
G01X-004775Y0006750D01*
G01X-004775Y0006750D02*
G01X-004350Y0006750D01*
G01X-004350Y0006750D02*
G01X-004350Y0006210D01*
G36*
G01X-003550Y0006210D02*
G01X-003975Y0006210D01*
G01X-003975Y0006750D01*
G01X-003550Y0006750D01*
G01X-003550Y0006210D01*
G01X-003550Y0006210D01*
G37*
G01X-003550Y0006210D02*
G01X-003975Y0006210D01*
G01X-003975Y0006210D02*
G01X-003975Y0006750D01*
G01X-003975Y0006750D02*
G01X-003550Y0006750D01*
G01X-003550Y0006750D02*
G01X-003550Y0006210D01*
G36*
G01X-000690Y0006325D02*
G01X-001335Y0006325D01*
G01X-001335Y0006600D01*
G01X-000690Y0006600D01*
G01X-000690Y0006325D01*
G01X-000690Y0006325D01*
G37*
G01X-000690Y0006325D02*
G01X-001335Y0006325D01*
G01X-001335Y0006325D02*
G01X-001335Y0006600D01*
G01X-001335Y0006600D02*
G01X-000690Y0006600D01*
G01X-000690Y0006600D02*
G01X-000690Y0006325D01*
G36*
G01X0001440Y0006325D02*
G01X0000795Y0006325D01*
G01X0000795Y0006600D01*
G01X0001440Y0006600D01*
G01X0001440Y0006325D01*
G01X0001440Y0006325D01*
G37*
G01X0001440Y0006325D02*
G01X0000795Y0006325D01*
G01X0000795Y0006325D02*
G01X0000795Y0006600D01*
G01X0000795Y0006600D02*
G01X0001440Y0006600D01*
G01X0001440Y0006600D02*
G01X0001440Y0006325D01*
G36*
G01X0004300Y0006405D02*
G01X0003875Y0006405D01*
G01X0003875Y0006940D01*
G01X0004300Y0006940D01*
G01X0004300Y0006405D01*
G01X0004300Y0006405D01*
G37*
G01X0004300Y0006405D02*
G01X0003875Y0006405D01*
G01X0003875Y0006405D02*
G01X0003875Y0006940D01*
G01X0003875Y0006940D02*
G01X0004300Y0006940D01*
G01X0004300Y0006940D02*
G01X0004300Y0006405D01*
G36*
G01X0005100Y0006405D02*
G01X0004675Y0006405D01*
G01X0004675Y0006940D01*
G01X0005100Y0006940D01*
G01X0005100Y0006405D01*
G01X0005100Y0006405D01*
G37*
G01X0005100Y0006405D02*
G01X0004675Y0006405D01*
G01X0004675Y0006405D02*
G01X0004675Y0006940D01*
G01X0004675Y0006940D02*
G01X0005100Y0006940D01*
G01X0005100Y0006940D02*
G01X0005100Y0006405D01*
G36*
G01X0002730Y0006945D02*
G01X0002300Y0006945D01*
G01X0002300Y0007480D01*
G01X0002730Y0007480D01*
G01X0002730Y0006945D01*
G01X0002730Y0006945D01*
G37*
G01X0002730Y0006945D02*
G01X0002300Y0006945D01*
G01X0002300Y0006945D02*
G01X0002300Y0007480D01*
G01X0002300Y0007480D02*
G01X0002730Y0007480D01*
G01X0002730Y0007480D02*
G01X0002730Y0006945D01*
G36*
G01X0003530Y0006945D02*
G01X0003100Y0006945D01*
G01X0003100Y0007480D01*
G01X0003530Y0007480D01*
G01X0003530Y0006945D01*
G01X0003530Y0006945D01*
G37*
G01X0003530Y0006945D02*
G01X0003100Y0006945D01*
G01X0003100Y0006945D02*
G01X0003100Y0007480D01*
G01X0003100Y0007480D02*
G01X0003530Y0007480D01*
G01X0003530Y0007480D02*
G01X0003530Y0006945D01*
G36*
G01X-000690Y0007025D02*
G01X-001009Y0007025D01*
G01X-001065Y0007025D01*
G01X-001117Y0007025D01*
G01X-001166Y0007025D01*
G01X-001210Y0007026D01*
G01X-001249Y0007026D01*
G01X-001281Y0007027D01*
G01X-001306Y0007027D01*
G01X-001323Y0007028D01*
G01X-001331Y0007028D01*
G01X-001332Y0007028D01*
G01X-001333Y0007034D01*
G01X-001333Y0007048D01*
G01X-001334Y0007070D01*
G01X-001335Y0007098D01*
G01X-001335Y0007130D01*
G01X-001335Y0007166D01*
G01X-001335Y0007300D01*
G01X-000690Y0007300D01*
G01X-000690Y0007025D01*
G01X-000690Y0007025D01*
G37*
G01X-000690Y0007025D02*
G01X-001009Y0007025D01*
G01X-001009Y0007025D02*
G01X-001065Y0007025D01*
G01X-001065Y0007025D02*
G01X-001117Y0007025D01*
G01X-001117Y0007025D02*
G01X-001166Y0007025D01*
G01X-001166Y0007025D02*
G01X-001210Y0007026D01*
G01X-001210Y0007026D02*
G01X-001249Y0007026D01*
G01X-001249Y0007026D02*
G01X-001281Y0007027D01*
G01X-001281Y0007027D02*
G01X-001306Y0007027D01*
G01X-001306Y0007027D02*
G01X-001323Y0007028D01*
G01X-001323Y0007028D02*
G01X-001331Y0007028D01*
G01X-001331Y0007028D02*
G01X-001332Y0007028D01*
G01X-001332Y0007028D02*
G01X-001333Y0007034D01*
G01X-001333Y0007034D02*
G01X-001333Y0007048D01*
G01X-001333Y0007048D02*
G01X-001334Y0007070D01*
G01X-001334Y0007070D02*
G01X-001335Y0007098D01*
G01X-001335Y0007098D02*
G01X-001335Y0007130D01*
G01X-001335Y0007130D02*
G01X-001335Y0007166D01*
G01X-001335Y0007166D02*
G01X-001335Y0007300D01*
G01X-001335Y0007300D02*
G01X-000690Y0007300D01*
G01X-000690Y0007300D02*
G01X-000690Y0007025D01*
G36*
G01X0001440Y0007025D02*
G01X0001121Y0007025D01*
G01X0001065Y0007025D01*
G01X0001013Y0007025D01*
G01X0000964Y0007025D01*
G01X0000920Y0007026D01*
G01X0000881Y0007026D01*
G01X0000849Y0007027D01*
G01X0000824Y0007027D01*
G01X0000807Y0007028D01*
G01X0000799Y0007028D01*
G01X0000798Y0007028D01*
G01X0000797Y0007034D01*
G01X0000797Y0007048D01*
G01X0000796Y0007070D01*
G01X0000795Y0007098D01*
G01X0000795Y0007130D01*
G01X0000795Y0007166D01*
G01X0000795Y0007300D01*
G01X0001440Y0007300D01*
G01X0001440Y0007025D01*
G01X0001440Y0007025D01*
G37*
G01X0001440Y0007025D02*
G01X0001121Y0007025D01*
G01X0001121Y0007025D02*
G01X0001065Y0007025D01*
G01X0001065Y0007025D02*
G01X0001013Y0007025D01*
G01X0001013Y0007025D02*
G01X0000964Y0007025D01*
G01X0000964Y0007025D02*
G01X0000920Y0007026D01*
G01X0000920Y0007026D02*
G01X0000881Y0007026D01*
G01X0000881Y0007026D02*
G01X0000849Y0007027D01*
G01X0000849Y0007027D02*
G01X0000824Y0007027D01*
G01X0000824Y0007027D02*
G01X0000807Y0007028D01*
G01X0000807Y0007028D02*
G01X0000799Y0007028D01*
G01X0000799Y0007028D02*
G01X0000798Y0007028D01*
G01X0000798Y0007028D02*
G01X0000797Y0007034D01*
G01X0000797Y0007034D02*
G01X0000797Y0007048D01*
G01X0000797Y0007048D02*
G01X0000796Y0007070D01*
G01X0000796Y0007070D02*
G01X0000795Y0007098D01*
G01X0000795Y0007098D02*
G01X0000795Y0007130D01*
G01X0000795Y0007130D02*
G01X0000795Y0007166D01*
G01X0000795Y0007166D02*
G01X0000795Y0007300D01*
G01X0000795Y0007300D02*
G01X0001440Y0007300D01*
G01X0001440Y0007300D02*
G01X0001440Y0007025D01*
G36*
G01X-004350Y0007690D02*
G01X-004775Y0007690D01*
G01X-004775Y0008230D01*
G01X-004350Y0008230D01*
G01X-004350Y0007690D01*
G01X-004350Y0007690D01*
G37*
G01X-004350Y0007690D02*
G01X-004775Y0007690D01*
G01X-004775Y0007690D02*
G01X-004775Y0008230D01*
G01X-004775Y0008230D02*
G01X-004350Y0008230D01*
G01X-004350Y0008230D02*
G01X-004350Y0007690D01*
G36*
G01X-003550Y0007690D02*
G01X-003975Y0007690D01*
G01X-003975Y0008230D01*
G01X-003550Y0008230D01*
G01X-003550Y0007690D01*
G01X-003550Y0007690D01*
G37*
G01X-003550Y0007690D02*
G01X-003975Y0007690D01*
G01X-003975Y0007690D02*
G01X-003975Y0008230D01*
G01X-003975Y0008230D02*
G01X-003550Y0008230D01*
G01X-003550Y0008230D02*
G01X-003550Y0007690D01*
G36*
G01X-000690Y0007815D02*
G01X-001335Y0007815D01*
G01X-001335Y0008090D01*
G01X-000690Y0008090D01*
G01X-000690Y0007815D01*
G01X-000690Y0007815D01*
G37*
G01X-000690Y0007815D02*
G01X-001335Y0007815D01*
G01X-001335Y0007815D02*
G01X-001335Y0008090D01*
G01X-001335Y0008090D02*
G01X-000690Y0008090D01*
G01X-000690Y0008090D02*
G01X-000690Y0007815D01*
G36*
G01X0001440Y0007815D02*
G01X0000795Y0007815D01*
G01X0000795Y0008090D01*
G01X0001440Y0008090D01*
G01X0001440Y0007815D01*
G01X0001440Y0007815D01*
G37*
G01X0001440Y0007815D02*
G01X0000795Y0007815D01*
G01X0000795Y0007815D02*
G01X0000795Y0008090D01*
G01X0000795Y0008090D02*
G01X0001440Y0008090D01*
G01X0001440Y0008090D02*
G01X0001440Y0007815D01*
G36*
G01X0004300Y0007885D02*
G01X0003875Y0007885D01*
G01X0003875Y0008420D01*
G01X0004300Y0008420D01*
G01X0004300Y0007885D01*
G01X0004300Y0007885D01*
G37*
G01X0004300Y0007885D02*
G01X0003875Y0007885D01*
G01X0003875Y0007885D02*
G01X0003875Y0008420D01*
G01X0003875Y0008420D02*
G01X0004300Y0008420D01*
G01X0004300Y0008420D02*
G01X0004300Y0007885D01*
G36*
G01X0005100Y0007885D02*
G01X0004675Y0007885D01*
G01X0004675Y0008420D01*
G01X0005100Y0008420D01*
G01X0005100Y0007885D01*
G01X0005100Y0007885D01*
G37*
G01X0005100Y0007885D02*
G01X0004675Y0007885D01*
G01X0004675Y0007885D02*
G01X0004675Y0008420D01*
G01X0004675Y0008420D02*
G01X0005100Y0008420D01*
G01X0005100Y0008420D02*
G01X0005100Y0007885D01*
G36*
G01X0002730Y0008425D02*
G01X0002300Y0008425D01*
G01X0002300Y0008960D01*
G01X0002730Y0008960D01*
G01X0002730Y0008425D01*
G01X0002730Y0008425D01*
G37*
G01X0002730Y0008425D02*
G01X0002300Y0008425D01*
G01X0002300Y0008425D02*
G01X0002300Y0008960D01*
G01X0002300Y0008960D02*
G01X0002730Y0008960D01*
G01X0002730Y0008960D02*
G01X0002730Y0008425D01*
G36*
G01X0003530Y0008425D02*
G01X0003100Y0008425D01*
G01X0003100Y0008960D01*
G01X0003530Y0008960D01*
G01X0003530Y0008425D01*
G01X0003530Y0008425D01*
G37*
G01X0003530Y0008425D02*
G01X0003100Y0008425D01*
G01X0003100Y0008425D02*
G01X0003100Y0008960D01*
G01X0003100Y0008960D02*
G01X0003530Y0008960D01*
G01X0003530Y0008960D02*
G01X0003530Y0008425D01*
G36*
G01X-000690Y0008520D02*
G01X-001335Y0008520D01*
G01X-001335Y0008795D01*
G01X-000690Y0008795D01*
G01X-000690Y0008520D01*
G01X-000690Y0008520D01*
G37*
G01X-000690Y0008520D02*
G01X-001335Y0008520D01*
G01X-001335Y0008520D02*
G01X-001335Y0008795D01*
G01X-001335Y0008795D02*
G01X-000690Y0008795D01*
G01X-000690Y0008795D02*
G01X-000690Y0008520D01*
G36*
G01X0001440Y0008520D02*
G01X0000795Y0008520D01*
G01X0000795Y0008795D01*
G01X0001440Y0008795D01*
G01X0001440Y0008520D01*
G01X0001440Y0008520D01*
G37*
G01X0001440Y0008520D02*
G01X0000795Y0008520D01*
G01X0000795Y0008520D02*
G01X0000795Y0008795D01*
G01X0000795Y0008795D02*
G01X0001440Y0008795D01*
G01X0001440Y0008795D02*
G01X0001440Y0008520D01*
G36*
G01X-004350Y0009170D02*
G01X-004775Y0009170D01*
G01X-004775Y0009710D01*
G01X-004350Y0009710D01*
G01X-004350Y0009170D01*
G01X-004350Y0009170D01*
G37*
G01X-004350Y0009170D02*
G01X-004775Y0009170D01*
G01X-004775Y0009170D02*
G01X-004775Y0009710D01*
G01X-004775Y0009710D02*
G01X-004350Y0009710D01*
G01X-004350Y0009710D02*
G01X-004350Y0009170D01*
G36*
G01X-003550Y0009170D02*
G01X-003975Y0009170D01*
G01X-003975Y0009710D01*
G01X-003550Y0009710D01*
G01X-003550Y0009170D01*
G01X-003550Y0009170D01*
G37*
G01X-003550Y0009170D02*
G01X-003975Y0009170D01*
G01X-003975Y0009170D02*
G01X-003975Y0009710D01*
G01X-003975Y0009710D02*
G01X-003550Y0009710D01*
G01X-003550Y0009710D02*
G01X-003550Y0009170D01*
G36*
G01X-000690Y0009305D02*
G01X-001335Y0009305D01*
G01X-001335Y0009580D01*
G01X-000690Y0009580D01*
G01X-000690Y0009305D01*
G01X-000690Y0009305D01*
G37*
G01X-000690Y0009305D02*
G01X-001335Y0009305D01*
G01X-001335Y0009305D02*
G01X-001335Y0009580D01*
G01X-001335Y0009580D02*
G01X-000690Y0009580D01*
G01X-000690Y0009580D02*
G01X-000690Y0009305D01*
G36*
G01X0001440Y0009305D02*
G01X0000795Y0009305D01*
G01X0000795Y0009580D01*
G01X0001440Y0009580D01*
G01X0001440Y0009305D01*
G01X0001440Y0009305D01*
G37*
G01X0001440Y0009305D02*
G01X0000795Y0009305D01*
G01X0000795Y0009305D02*
G01X0000795Y0009580D01*
G01X0000795Y0009580D02*
G01X0001440Y0009580D01*
G01X0001440Y0009580D02*
G01X0001440Y0009305D01*
G36*
G01X0004298Y0009363D02*
G01X0004086Y0009361D01*
G01X0003875Y0009360D01*
G01X0003875Y0009900D01*
G01X0004300Y0009900D01*
G01X0004298Y0009363D01*
G01X0004298Y0009363D01*
G37*
G01X0004298Y0009363D02*
G01X0004086Y0009361D01*
G01X0004086Y0009361D02*
G01X0003875Y0009360D01*
G01X0003875Y0009360D02*
G01X0003875Y0009900D01*
G01X0003875Y0009900D02*
G01X0004300Y0009900D01*
G01X0004300Y0009900D02*
G01X0004298Y0009363D01*
G36*
G01X0005098Y0009363D02*
G01X0004886Y0009361D01*
G01X0004675Y0009360D01*
G01X0004675Y0009900D01*
G01X0005100Y0009900D01*
G01X0005098Y0009363D01*
G01X0005098Y0009363D01*
G37*
G01X0005098Y0009363D02*
G01X0004886Y0009361D01*
G01X0004886Y0009361D02*
G01X0004675Y0009360D01*
G01X0004675Y0009360D02*
G01X0004675Y0009900D01*
G01X0004675Y0009900D02*
G01X0005100Y0009900D01*
G01X0005100Y0009900D02*
G01X0005098Y0009363D01*
G36*
G01X0002730Y0009900D02*
G01X0002518Y0009900D01*
G01X0002473Y0009900D01*
G01X0002431Y0009900D01*
G01X0002394Y0009901D01*
G01X0002361Y0009901D01*
G01X0002335Y0009902D01*
G01X0002316Y0009902D01*
G01X0002305Y0009903D01*
G01X0002303Y0009903D01*
G01X0002303Y0009909D01*
G01X0002302Y0009923D01*
G01X0002302Y0009946D01*
G01X0002301Y0009976D01*
G01X0002301Y0010012D01*
G01X0002300Y0010054D01*
G01X0002300Y0010100D01*
G01X0002300Y0010149D01*
G01X0002300Y0010173D01*
G01X0002300Y0010440D01*
G01X0002730Y0010440D01*
G01X0002730Y0009900D01*
G01X0002730Y0009900D01*
G37*
G01X0002730Y0009900D02*
G01X0002518Y0009900D01*
G01X0002518Y0009900D02*
G01X0002473Y0009900D01*
G01X0002473Y0009900D02*
G01X0002431Y0009900D01*
G01X0002431Y0009900D02*
G01X0002394Y0009901D01*
G01X0002394Y0009901D02*
G01X0002361Y0009901D01*
G01X0002361Y0009901D02*
G01X0002335Y0009902D01*
G01X0002335Y0009902D02*
G01X0002316Y0009902D01*
G01X0002316Y0009902D02*
G01X0002305Y0009903D01*
G01X0002305Y0009903D02*
G01X0002303Y0009903D01*
G01X0002303Y0009903D02*
G01X0002303Y0009909D01*
G01X0002303Y0009909D02*
G01X0002302Y0009923D01*
G01X0002302Y0009923D02*
G01X0002302Y0009946D01*
G01X0002302Y0009946D02*
G01X0002301Y0009976D01*
G01X0002301Y0009976D02*
G01X0002301Y0010012D01*
G01X0002301Y0010012D02*
G01X0002300Y0010054D01*
G01X0002300Y0010054D02*
G01X0002300Y0010100D01*
G01X0002300Y0010100D02*
G01X0002300Y0010149D01*
G01X0002300Y0010149D02*
G01X0002300Y0010173D01*
G01X0002300Y0010173D02*
G01X0002300Y0010440D01*
G01X0002300Y0010440D02*
G01X0002730Y0010440D01*
G01X0002730Y0010440D02*
G01X0002730Y0009900D01*
G36*
G01X0003528Y0009903D02*
G01X0003317Y0009901D01*
G01X0003272Y0009901D01*
G01X0003230Y0009901D01*
G01X0003193Y0009901D01*
G01X0003160Y0009901D01*
G01X0003134Y0009902D01*
G01X0003115Y0009902D01*
G01X0003105Y0009903D01*
G01X0003103Y0009903D01*
G01X0003103Y0009909D01*
G01X0003102Y0009923D01*
G01X0003102Y0009946D01*
G01X0003101Y0009976D01*
G01X0003101Y0010012D01*
G01X0003100Y0010054D01*
G01X0003100Y0010100D01*
G01X0003100Y0010149D01*
G01X0003100Y0010173D01*
G01X0003100Y0010440D01*
G01X0003530Y0010440D01*
G01X0003528Y0009903D01*
G01X0003528Y0009903D01*
G37*
G01X0003528Y0009903D02*
G01X0003317Y0009901D01*
G01X0003317Y0009901D02*
G01X0003272Y0009901D01*
G01X0003272Y0009901D02*
G01X0003230Y0009901D01*
G01X0003230Y0009901D02*
G01X0003193Y0009901D01*
G01X0003193Y0009901D02*
G01X0003160Y0009901D01*
G01X0003160Y0009901D02*
G01X0003134Y0009902D01*
G01X0003134Y0009902D02*
G01X0003115Y0009902D01*
G01X0003115Y0009902D02*
G01X0003105Y0009903D01*
G01X0003105Y0009903D02*
G01X0003103Y0009903D01*
G01X0003103Y0009903D02*
G01X0003103Y0009909D01*
G01X0003103Y0009909D02*
G01X0003102Y0009923D01*
G01X0003102Y0009923D02*
G01X0003102Y0009946D01*
G01X0003102Y0009946D02*
G01X0003101Y0009976D01*
G01X0003101Y0009976D02*
G01X0003101Y0010012D01*
G01X0003101Y0010012D02*
G01X0003100Y0010054D01*
G01X0003100Y0010054D02*
G01X0003100Y0010100D01*
G01X0003100Y0010100D02*
G01X0003100Y0010149D01*
G01X0003100Y0010149D02*
G01X0003100Y0010173D01*
G01X0003100Y0010173D02*
G01X0003100Y0010440D01*
G01X0003100Y0010440D02*
G01X0003530Y0010440D01*
G01X0003530Y0010440D02*
G01X0003528Y0009903D01*
G36*
G01X-000690Y0010010D02*
G01X-001335Y0010010D01*
G01X-001335Y0010285D01*
G01X-000690Y0010285D01*
G01X-000690Y0010010D01*
G01X-000690Y0010010D01*
G37*
G01X-000690Y0010010D02*
G01X-001335Y0010010D01*
G01X-001335Y0010010D02*
G01X-001335Y0010285D01*
G01X-001335Y0010285D02*
G01X-000690Y0010285D01*
G01X-000690Y0010285D02*
G01X-000690Y0010010D01*
G36*
G01X0001440Y0010010D02*
G01X0000795Y0010010D01*
G01X0000795Y0010285D01*
G01X0001440Y0010285D01*
G01X0001440Y0010010D01*
G01X0001440Y0010010D01*
G37*
G01X0001440Y0010010D02*
G01X0000795Y0010010D01*
G01X0000795Y0010010D02*
G01X0000795Y0010285D01*
G01X0000795Y0010285D02*
G01X0001440Y0010285D01*
G01X0001440Y0010285D02*
G01X0001440Y0010010D01*
G36*
G01X-004350Y0010650D02*
G01X-004775Y0010650D01*
G01X-004775Y0011190D01*
G01X-004350Y0011190D01*
G01X-004350Y0010650D01*
G01X-004350Y0010650D01*
G37*
G01X-004350Y0010650D02*
G01X-004775Y0010650D01*
G01X-004775Y0010650D02*
G01X-004775Y0011190D01*
G01X-004775Y0011190D02*
G01X-004350Y0011190D01*
G01X-004350Y0011190D02*
G01X-004350Y0010650D01*
G36*
G01X-003550Y0010650D02*
G01X-003975Y0010650D01*
G01X-003975Y0011190D01*
G01X-003550Y0011190D01*
G01X-003550Y0010650D01*
G01X-003550Y0010650D01*
G37*
G01X-003550Y0010650D02*
G01X-003975Y0010650D01*
G01X-003975Y0010650D02*
G01X-003975Y0011190D01*
G01X-003975Y0011190D02*
G01X-003550Y0011190D01*
G01X-003550Y0011190D02*
G01X-003550Y0010650D01*
G36*
G01X-000690Y0010795D02*
G01X-001335Y0010795D01*
G01X-001335Y0011070D01*
G01X-000690Y0011070D01*
G01X-000690Y0010795D01*
G01X-000690Y0010795D01*
G37*
G01X-000690Y0010795D02*
G01X-001335Y0010795D01*
G01X-001335Y0010795D02*
G01X-001335Y0011070D01*
G01X-001335Y0011070D02*
G01X-000690Y0011070D01*
G01X-000690Y0011070D02*
G01X-000690Y0010795D01*
G36*
G01X0001440Y0010795D02*
G01X0000795Y0010795D01*
G01X0000795Y0011070D01*
G01X0001440Y0011070D01*
G01X0001440Y0010795D01*
G01X0001440Y0010795D01*
G37*
G01X0001440Y0010795D02*
G01X0000795Y0010795D01*
G01X0000795Y0010795D02*
G01X0000795Y0011070D01*
G01X0000795Y0011070D02*
G01X0001440Y0011070D01*
G01X0001440Y0011070D02*
G01X0001440Y0010795D01*
G36*
G01X0004300Y0010840D02*
G01X0003875Y0010840D01*
G01X0003875Y0011380D01*
G01X0004300Y0011380D01*
G01X0004300Y0010840D01*
G01X0004300Y0010840D01*
G37*
G01X0004300Y0010840D02*
G01X0003875Y0010840D01*
G01X0003875Y0010840D02*
G01X0003875Y0011380D01*
G01X0003875Y0011380D02*
G01X0004300Y0011380D01*
G01X0004300Y0011380D02*
G01X0004300Y0010840D01*
G36*
G01X0005100Y0010840D02*
G01X0004675Y0010840D01*
G01X0004675Y0011380D01*
G01X0005100Y0011380D01*
G01X0005100Y0010840D01*
G01X0005100Y0010840D01*
G37*
G01X0005100Y0010840D02*
G01X0004675Y0010840D01*
G01X0004675Y0010840D02*
G01X0004675Y0011380D01*
G01X0004675Y0011380D02*
G01X0005100Y0011380D01*
G01X0005100Y0011380D02*
G01X0005100Y0010840D01*
G36*
G01X0002730Y0011380D02*
G01X0002300Y0011380D01*
G01X0002300Y0011920D01*
G01X0002730Y0011920D01*
G01X0002730Y0011380D01*
G01X0002730Y0011380D01*
G37*
G01X0002730Y0011380D02*
G01X0002300Y0011380D01*
G01X0002300Y0011380D02*
G01X0002300Y0011920D01*
G01X0002300Y0011920D02*
G01X0002730Y0011920D01*
G01X0002730Y0011920D02*
G01X0002730Y0011380D01*
G36*
G01X0003530Y0011380D02*
G01X0003100Y0011380D01*
G01X0003100Y0011920D01*
G01X0003530Y0011920D01*
G01X0003530Y0011380D01*
G01X0003530Y0011380D01*
G37*
G01X0003530Y0011380D02*
G01X0003100Y0011380D01*
G01X0003100Y0011380D02*
G01X0003100Y0011920D01*
G01X0003100Y0011920D02*
G01X0003530Y0011920D01*
G01X0003530Y0011920D02*
G01X0003530Y0011380D01*
G36*
G01X-000690Y0011500D02*
G01X-001335Y0011500D01*
G01X-001335Y0011775D01*
G01X-000690Y0011775D01*
G01X-000690Y0011500D01*
G01X-000690Y0011500D01*
G37*
G01X-000690Y0011500D02*
G01X-001335Y0011500D01*
G01X-001335Y0011500D02*
G01X-001335Y0011775D01*
G01X-001335Y0011775D02*
G01X-000690Y0011775D01*
G01X-000690Y0011775D02*
G01X-000690Y0011500D01*
G36*
G01X0001440Y0011500D02*
G01X0000795Y0011500D01*
G01X0000795Y0011775D01*
G01X0001440Y0011775D01*
G01X0001440Y0011500D01*
G01X0001440Y0011500D01*
G37*
G01X0001440Y0011500D02*
G01X0000795Y0011500D01*
G01X0000795Y0011500D02*
G01X0000795Y0011775D01*
G01X0000795Y0011775D02*
G01X0001440Y0011775D01*
G01X0001440Y0011775D02*
G01X0001440Y0011500D01*
G36*
G01X-004350Y0012130D02*
G01X-004775Y0012130D01*
G01X-004775Y0012670D01*
G01X-004350Y0012670D01*
G01X-004350Y0012130D01*
G01X-004350Y0012130D01*
G37*
G01X-004350Y0012130D02*
G01X-004775Y0012130D01*
G01X-004775Y0012130D02*
G01X-004775Y0012670D01*
G01X-004775Y0012670D02*
G01X-004350Y0012670D01*
G01X-004350Y0012670D02*
G01X-004350Y0012130D01*
G36*
G01X-003550Y0012130D02*
G01X-003975Y0012130D01*
G01X-003975Y0012670D01*
G01X-003550Y0012670D01*
G01X-003550Y0012130D01*
G01X-003550Y0012130D01*
G37*
G01X-003550Y0012130D02*
G01X-003975Y0012130D01*
G01X-003975Y0012130D02*
G01X-003975Y0012670D01*
G01X-003975Y0012670D02*
G01X-003550Y0012670D01*
G01X-003550Y0012670D02*
G01X-003550Y0012130D01*
G36*
G01X-000690Y0012285D02*
G01X-001335Y0012285D01*
G01X-001335Y0012560D01*
G01X-000690Y0012560D01*
G01X-000690Y0012285D01*
G01X-000690Y0012285D01*
G37*
G01X-000690Y0012285D02*
G01X-001335Y0012285D01*
G01X-001335Y0012285D02*
G01X-001335Y0012560D01*
G01X-001335Y0012560D02*
G01X-000690Y0012560D01*
G01X-000690Y0012560D02*
G01X-000690Y0012285D01*
G36*
G01X0001440Y0012285D02*
G01X0000795Y0012285D01*
G01X0000795Y0012560D01*
G01X0001440Y0012560D01*
G01X0001440Y0012285D01*
G01X0001440Y0012285D01*
G37*
G01X0001440Y0012285D02*
G01X0000795Y0012285D01*
G01X0000795Y0012285D02*
G01X0000795Y0012560D01*
G01X0000795Y0012560D02*
G01X0001440Y0012560D01*
G01X0001440Y0012560D02*
G01X0001440Y0012285D01*
G36*
G01X0004300Y0012320D02*
G01X0003875Y0012320D01*
G01X0003875Y0012860D01*
G01X0004300Y0012860D01*
G01X0004300Y0012320D01*
G01X0004300Y0012320D01*
G37*
G01X0004300Y0012320D02*
G01X0003875Y0012320D01*
G01X0003875Y0012320D02*
G01X0003875Y0012860D01*
G01X0003875Y0012860D02*
G01X0004300Y0012860D01*
G01X0004300Y0012860D02*
G01X0004300Y0012320D01*
G36*
G01X0005100Y0012320D02*
G01X0004675Y0012320D01*
G01X0004675Y0012860D01*
G01X0005100Y0012860D01*
G01X0005100Y0012320D01*
G01X0005100Y0012320D01*
G37*
G01X0005100Y0012320D02*
G01X0004675Y0012320D01*
G01X0004675Y0012320D02*
G01X0004675Y0012860D01*
G01X0004675Y0012860D02*
G01X0005100Y0012860D01*
G01X0005100Y0012860D02*
G01X0005100Y0012320D01*
G36*
G01X0002730Y0012860D02*
G01X0002300Y0012860D01*
G01X0002300Y0013400D01*
G01X0002730Y0013400D01*
G01X0002730Y0012860D01*
G01X0002730Y0012860D01*
G37*
G01X0002730Y0012860D02*
G01X0002300Y0012860D01*
G01X0002300Y0012860D02*
G01X0002300Y0013400D01*
G01X0002300Y0013400D02*
G01X0002730Y0013400D01*
G01X0002730Y0013400D02*
G01X0002730Y0012860D01*
G36*
G01X0003530Y0012860D02*
G01X0003100Y0012860D01*
G01X0003100Y0013400D01*
G01X0003530Y0013400D01*
G01X0003530Y0012860D01*
G01X0003530Y0012860D01*
G37*
G01X0003530Y0012860D02*
G01X0003100Y0012860D01*
G01X0003100Y0012860D02*
G01X0003100Y0013400D01*
G01X0003100Y0013400D02*
G01X0003530Y0013400D01*
G01X0003530Y0013400D02*
G01X0003530Y0012860D01*
G36*
G01X-000690Y0012990D02*
G01X-001335Y0012990D01*
G01X-001335Y0013265D01*
G01X-000690Y0013265D01*
G01X-000690Y0012990D01*
G01X-000690Y0012990D01*
G37*
G01X-000690Y0012990D02*
G01X-001335Y0012990D01*
G01X-001335Y0012990D02*
G01X-001335Y0013265D01*
G01X-001335Y0013265D02*
G01X-000690Y0013265D01*
G01X-000690Y0013265D02*
G01X-000690Y0012990D01*
G36*
G01X0001440Y0012990D02*
G01X0000795Y0012990D01*
G01X0000795Y0013265D01*
G01X0001440Y0013265D01*
G01X0001440Y0012990D01*
G01X0001440Y0012990D01*
G37*
G01X0001440Y0012990D02*
G01X0000795Y0012990D01*
G01X0000795Y0012990D02*
G01X0000795Y0013265D01*
G01X0000795Y0013265D02*
G01X0001440Y0013265D01*
G01X0001440Y0013265D02*
G01X0001440Y0012990D01*
G54D11*
G36*
G01X0001960Y0002175D02*
G01X0001985Y0002165D01*
G01X0002008Y0002150D01*
G01X0002028Y0002130D01*
G01X0002043Y0002108D01*
G01X0002053Y0002082D01*
G01X0002059Y0002056D01*
G01X0002059Y0002028D01*
G01X0002053Y0002001D01*
G01X0002043Y0001976D01*
G01X0002028Y0001953D01*
G01X0002008Y0001934D01*
G01X0001985Y0001919D01*
G01X0001960Y0001908D01*
G01X0001933Y0001903D01*
G01X0001906Y0001903D01*
G01X0001879Y0001908D01*
G01X0001854Y0001919D01*
G01X0001831Y0001934D01*
G01X0001812Y0001953D01*
G01X0001797Y0001976D01*
G01X0001786Y0002001D01*
G01X0001781Y0002028D01*
G01X0001781Y0002056D01*
G01X0001786Y0002082D01*
G01X0001797Y0002108D01*
G01X0001812Y0002130D01*
G01X0001831Y0002150D01*
G01X0001854Y0002165D01*
G01X0001879Y0002175D01*
G01X0001906Y0002181D01*
G01X0001933Y0002181D01*
G01X0001960Y0002175D01*
G01X0001960Y0002175D01*
G37*
G36*
G01X0005539Y0002231D02*
G01X0005564Y0002220D01*
G01X0005587Y0002205D01*
G01X0005606Y0002186D01*
G01X0005621Y0002163D01*
G01X0005631Y0002138D01*
G01X0005637Y0002111D01*
G01X0005637Y0002084D01*
G01X0005631Y0002057D01*
G01X0005621Y0002031D01*
G01X0005606Y0002009D01*
G01X0005587Y0001989D01*
G01X0005564Y0001974D01*
G01X0005539Y0001964D01*
G01X0005512Y0001958D01*
G01X0005484Y0001958D01*
G01X0005458Y0001964D01*
G01X0005432Y0001974D01*
G01X0005410Y0001989D01*
G01X0005390Y0002009D01*
G01X0005375Y0002031D01*
G01X0005365Y0002057D01*
G01X0005359Y0002084D01*
G01X0005359Y0002111D01*
G01X0005365Y0002138D01*
G01X0005375Y0002163D01*
G01X0005390Y0002186D01*
G01X0005410Y0002205D01*
G01X0005432Y0002220D01*
G01X0005458Y0002231D01*
G01X0005484Y0002236D01*
G01X0005512Y0002236D01*
G01X0005539Y0002231D01*
G01X0005539Y0002231D01*
G37*
G36*
G01X0001960Y0003643D02*
G01X0001985Y0003633D01*
G01X0002008Y0003618D01*
G01X0002028Y0003598D01*
G01X0002043Y0003576D01*
G01X0002053Y0003550D01*
G01X0002059Y0003524D01*
G01X0002059Y0003496D01*
G01X0002053Y0003469D01*
G01X0002043Y0003444D01*
G01X0002028Y0003422D01*
G01X0002008Y0003402D01*
G01X0001985Y0003387D01*
G01X0001960Y0003377D01*
G01X0001933Y0003371D01*
G01X0001906Y0003371D01*
G01X0001879Y0003377D01*
G01X0001854Y0003387D01*
G01X0001831Y0003402D01*
G01X0001812Y0003422D01*
G01X0001797Y0003444D01*
G01X0001786Y0003469D01*
G01X0001781Y0003496D01*
G01X0001781Y0003524D01*
G01X0001786Y0003550D01*
G01X0001797Y0003576D01*
G01X0001812Y0003598D01*
G01X0001831Y0003618D01*
G01X0001854Y0003633D01*
G01X0001879Y0003643D01*
G01X0001906Y0003649D01*
G01X0001933Y0003649D01*
G01X0001960Y0003643D01*
G01X0001960Y0003643D01*
G37*
G36*
G01X0005529Y0003793D02*
G01X0005554Y0003783D01*
G01X0005577Y0003767D01*
G01X0005596Y0003748D01*
G01X0005611Y0003725D01*
G01X0005622Y0003700D01*
G01X0005627Y0003673D01*
G01X0005627Y0003646D01*
G01X0005622Y0003619D01*
G01X0005611Y0003594D01*
G01X0005596Y0003571D01*
G01X0005577Y0003552D01*
G01X0005554Y0003537D01*
G01X0005529Y0003526D01*
G01X0005502Y0003521D01*
G01X0005475Y0003521D01*
G01X0005448Y0003526D01*
G01X0005423Y0003537D01*
G01X0005400Y0003552D01*
G01X0005381Y0003571D01*
G01X0005365Y0003594D01*
G01X0005355Y0003619D01*
G01X0005350Y0003646D01*
G01X0005350Y0003673D01*
G01X0005355Y0003700D01*
G01X0005365Y0003725D01*
G01X0005381Y0003748D01*
G01X0005400Y0003767D01*
G01X0005423Y0003783D01*
G01X0005448Y0003793D01*
G01X0005475Y0003798D01*
G01X0005502Y0003798D01*
G01X0005529Y0003793D01*
G01X0005529Y0003793D01*
G37*
G36*
G01X0001960Y0005134D02*
G01X0001985Y0005124D01*
G01X0002008Y0005109D01*
G01X0002028Y0005089D01*
G01X0002043Y0005067D01*
G01X0002053Y0005041D01*
G01X0002059Y0005014D01*
G01X0002059Y0004987D01*
G01X0002053Y0004960D01*
G01X0002043Y0004935D01*
G01X0002028Y0004912D01*
G01X0002008Y0004893D01*
G01X0001985Y0004878D01*
G01X0001960Y0004867D01*
G01X0001933Y0004862D01*
G01X0001906Y0004862D01*
G01X0001879Y0004867D01*
G01X0001854Y0004878D01*
G01X0001831Y0004893D01*
G01X0001812Y0004912D01*
G01X0001797Y0004935D01*
G01X0001786Y0004960D01*
G01X0001781Y0004987D01*
G01X0001781Y0005014D01*
G01X0001786Y0005041D01*
G01X0001797Y0005067D01*
G01X0001812Y0005089D01*
G01X0001831Y0005109D01*
G01X0001854Y0005124D01*
G01X0001879Y0005134D01*
G01X0001906Y0005140D01*
G01X0001933Y0005140D01*
G01X0001960Y0005134D01*
G01X0001960Y0005134D01*
G37*
G36*
G01X0005544Y0005359D02*
G01X0005569Y0005349D01*
G01X0005592Y0005334D01*
G01X0005611Y0005314D01*
G01X0005626Y0005292D01*
G01X0005637Y0005266D01*
G01X0005642Y0005240D01*
G01X0005642Y0005212D01*
G01X0005637Y0005186D01*
G01X0005626Y0005160D01*
G01X0005611Y0005138D01*
G01X0005592Y0005118D01*
G01X0005569Y0005103D01*
G01X0005544Y0005093D01*
G01X0005517Y0005087D01*
G01X0005490Y0005087D01*
G01X0005463Y0005093D01*
G01X0005438Y0005103D01*
G01X0005415Y0005118D01*
G01X0005396Y0005138D01*
G01X0005380Y0005160D01*
G01X0005370Y0005186D01*
G01X0005365Y0005212D01*
G01X0005365Y0005240D01*
G01X0005370Y0005266D01*
G01X0005380Y0005292D01*
G01X0005396Y0005314D01*
G01X0005415Y0005334D01*
G01X0005438Y0005349D01*
G01X0005463Y0005359D01*
G01X0005490Y0005365D01*
G01X0005517Y0005365D01*
G01X0005544Y0005359D01*
G01X0005544Y0005359D01*
G37*
G36*
G01X0001960Y0006620D02*
G01X0001985Y0006610D01*
G01X0002008Y0006595D01*
G01X0002028Y0006575D01*
G01X0002043Y0006553D01*
G01X0002053Y0006527D01*
G01X0002059Y0006501D01*
G01X0002059Y0006473D01*
G01X0002053Y0006446D01*
G01X0002043Y0006421D01*
G01X0002028Y0006398D01*
G01X0002008Y0006379D01*
G01X0001985Y0006364D01*
G01X0001960Y0006353D01*
G01X0001933Y0006348D01*
G01X0001906Y0006348D01*
G01X0001879Y0006353D01*
G01X0001854Y0006364D01*
G01X0001831Y0006379D01*
G01X0001812Y0006398D01*
G01X0001797Y0006421D01*
G01X0001786Y0006446D01*
G01X0001781Y0006473D01*
G01X0001781Y0006501D01*
G01X0001786Y0006527D01*
G01X0001797Y0006553D01*
G01X0001812Y0006575D01*
G01X0001831Y0006595D01*
G01X0001854Y0006610D01*
G01X0001879Y0006620D01*
G01X0001906Y0006626D01*
G01X0001933Y0006626D01*
G01X0001960Y0006620D01*
G01X0001960Y0006620D01*
G37*
G36*
G01X0005540Y0006843D02*
G01X0005566Y0006832D01*
G01X0005588Y0006817D01*
G01X0005608Y0006798D01*
G01X0005623Y0006775D01*
G01X0005633Y0006750D01*
G01X0005639Y0006723D01*
G01X0005639Y0006696D01*
G01X0005633Y0006669D01*
G01X0005623Y0006644D01*
G01X0005608Y0006621D01*
G01X0005588Y0006602D01*
G01X0005566Y0006587D01*
G01X0005540Y0006576D01*
G01X0005514Y0006571D01*
G01X0005486Y0006571D01*
G01X0005459Y0006576D01*
G01X0005434Y0006587D01*
G01X0005411Y0006602D01*
G01X0005392Y0006621D01*
G01X0005377Y0006644D01*
G01X0005366Y0006669D01*
G01X0005361Y0006696D01*
G01X0005361Y0006723D01*
G01X0005366Y0006750D01*
G01X0005377Y0006775D01*
G01X0005392Y0006798D01*
G01X0005411Y0006817D01*
G01X0005434Y0006832D01*
G01X0005459Y0006843D01*
G01X0005486Y0006848D01*
G01X0005514Y0006848D01*
G01X0005540Y0006843D01*
G01X0005540Y0006843D01*
G37*
G36*
G01X0001960Y0008111D02*
G01X0001985Y0008101D01*
G01X0002008Y0008085D01*
G01X0002028Y0008066D01*
G01X0002043Y0008043D01*
G01X0002053Y0008018D01*
G01X0002059Y0007991D01*
G01X0002059Y0007964D01*
G01X0002053Y0007937D01*
G01X0002043Y0007912D01*
G01X0002028Y0007889D01*
G01X0002008Y0007870D01*
G01X0001985Y0007855D01*
G01X0001960Y0007844D01*
G01X0001933Y0007839D01*
G01X0001906Y0007839D01*
G01X0001879Y0007844D01*
G01X0001854Y0007855D01*
G01X0001831Y0007870D01*
G01X0001812Y0007889D01*
G01X0001797Y0007912D01*
G01X0001786Y0007937D01*
G01X0001781Y0007964D01*
G01X0001781Y0007991D01*
G01X0001786Y0008018D01*
G01X0001797Y0008043D01*
G01X0001812Y0008066D01*
G01X0001831Y0008085D01*
G01X0001854Y0008101D01*
G01X0001879Y0008111D01*
G01X0001906Y0008116D01*
G01X0001933Y0008116D01*
G01X0001960Y0008111D01*
G01X0001960Y0008111D01*
G37*
G36*
G01X0005529Y0008322D02*
G01X0005554Y0008311D01*
G01X0005577Y0008296D01*
G01X0005596Y0008277D01*
G01X0005611Y0008254D01*
G01X0005622Y0008229D01*
G01X0005627Y0008202D01*
G01X0005627Y0008175D01*
G01X0005622Y0008148D01*
G01X0005611Y0008123D01*
G01X0005596Y0008100D01*
G01X0005577Y0008081D01*
G01X0005554Y0008065D01*
G01X0005529Y0008055D01*
G01X0005502Y0008050D01*
G01X0005475Y0008050D01*
G01X0005448Y0008055D01*
G01X0005423Y0008065D01*
G01X0005400Y0008081D01*
G01X0005381Y0008100D01*
G01X0005365Y0008123D01*
G01X0005355Y0008148D01*
G01X0005350Y0008175D01*
G01X0005350Y0008202D01*
G01X0005355Y0008229D01*
G01X0005365Y0008254D01*
G01X0005381Y0008277D01*
G01X0005400Y0008296D01*
G01X0005423Y0008311D01*
G01X0005448Y0008322D01*
G01X0005475Y0008327D01*
G01X0005502Y0008327D01*
G01X0005529Y0008322D01*
G01X0005529Y0008322D01*
G37*
G36*
G01X0001960Y0009599D02*
G01X0001985Y0009588D01*
G01X0002008Y0009573D01*
G01X0002028Y0009554D01*
G01X0002043Y0009531D01*
G01X0002053Y0009506D01*
G01X0002059Y0009479D01*
G01X0002059Y0009452D01*
G01X0002053Y0009425D01*
G01X0002043Y0009400D01*
G01X0002028Y0009377D01*
G01X0002008Y0009358D01*
G01X0001985Y0009342D01*
G01X0001960Y0009332D01*
G01X0001933Y0009327D01*
G01X0001906Y0009327D01*
G01X0001879Y0009332D01*
G01X0001854Y0009342D01*
G01X0001831Y0009358D01*
G01X0001812Y0009377D01*
G01X0001797Y0009400D01*
G01X0001786Y0009425D01*
G01X0001781Y0009452D01*
G01X0001781Y0009479D01*
G01X0001786Y0009506D01*
G01X0001797Y0009531D01*
G01X0001812Y0009554D01*
G01X0001831Y0009573D01*
G01X0001854Y0009588D01*
G01X0001879Y0009599D01*
G01X0001906Y0009604D01*
G01X0001933Y0009604D01*
G01X0001960Y0009599D01*
G01X0001960Y0009599D01*
G37*
G36*
G01X0005542Y0009802D02*
G01X0005567Y0009791D01*
G01X0005589Y0009776D01*
G01X0005609Y0009757D01*
G01X0005624Y0009734D01*
G01X0005634Y0009709D01*
G01X0005640Y0009682D01*
G01X0005640Y0009655D01*
G01X0005634Y0009628D01*
G01X0005624Y0009603D01*
G01X0005609Y0009580D01*
G01X0005589Y0009561D01*
G01X0005567Y0009545D01*
G01X0005542Y0009535D01*
G01X0005515Y0009530D01*
G01X0005487Y0009530D01*
G01X0005461Y0009535D01*
G01X0005435Y0009545D01*
G01X0005413Y0009561D01*
G01X0005393Y0009580D01*
G01X0005378Y0009603D01*
G01X0005368Y0009628D01*
G01X0005362Y0009655D01*
G01X0005362Y0009682D01*
G01X0005368Y0009709D01*
G01X0005378Y0009734D01*
G01X0005393Y0009757D01*
G01X0005413Y0009776D01*
G01X0005435Y0009791D01*
G01X0005461Y0009802D01*
G01X0005487Y0009807D01*
G01X0005515Y0009807D01*
G01X0005542Y0009802D01*
G01X0005542Y0009802D01*
G37*
G36*
G01X0001960Y0011091D02*
G01X0001985Y0011081D01*
G01X0002008Y0011066D01*
G01X0002028Y0011046D01*
G01X0002043Y0011024D01*
G01X0002053Y0010998D01*
G01X0002059Y0010972D01*
G01X0002059Y0010944D01*
G01X0002053Y0010917D01*
G01X0002043Y0010892D01*
G01X0002028Y0010869D01*
G01X0002008Y0010850D01*
G01X0001985Y0010835D01*
G01X0001960Y0010824D01*
G01X0001933Y0010819D01*
G01X0001906Y0010819D01*
G01X0001879Y0010824D01*
G01X0001854Y0010835D01*
G01X0001831Y0010850D01*
G01X0001812Y0010869D01*
G01X0001797Y0010892D01*
G01X0001786Y0010917D01*
G01X0001781Y0010944D01*
G01X0001781Y0010972D01*
G01X0001786Y0010998D01*
G01X0001797Y0011024D01*
G01X0001812Y0011046D01*
G01X0001831Y0011066D01*
G01X0001854Y0011081D01*
G01X0001879Y0011091D01*
G01X0001906Y0011097D01*
G01X0001933Y0011097D01*
G01X0001960Y0011091D01*
G01X0001960Y0011091D01*
G37*
G36*
G01X0005529Y0011290D02*
G01X0005554Y0011279D01*
G01X0005577Y0011264D01*
G01X0005596Y0011245D01*
G01X0005611Y0011222D01*
G01X0005622Y0011197D01*
G01X0005627Y0011170D01*
G01X0005627Y0011143D01*
G01X0005622Y0011116D01*
G01X0005611Y0011091D01*
G01X0005596Y0011068D01*
G01X0005577Y0011049D01*
G01X0005554Y0011034D01*
G01X0005529Y0011023D01*
G01X0005502Y0011018D01*
G01X0005475Y0011018D01*
G01X0005448Y0011023D01*
G01X0005423Y0011034D01*
G01X0005400Y0011049D01*
G01X0005381Y0011068D01*
G01X0005365Y0011091D01*
G01X0005355Y0011116D01*
G01X0005350Y0011143D01*
G01X0005350Y0011170D01*
G01X0005355Y0011197D01*
G01X0005365Y0011222D01*
G01X0005381Y0011245D01*
G01X0005400Y0011264D01*
G01X0005423Y0011279D01*
G01X0005448Y0011290D01*
G01X0005475Y0011295D01*
G01X0005502Y0011295D01*
G01X0005529Y0011290D01*
G01X0005529Y0011290D01*
G37*
G36*
G01X0001960Y0012557D02*
G01X0001985Y0012547D01*
G01X0002008Y0012532D01*
G01X0002028Y0012512D01*
G01X0002043Y0012490D01*
G01X0002053Y0012464D01*
G01X0002059Y0012438D01*
G01X0002059Y0012410D01*
G01X0002053Y0012383D01*
G01X0002043Y0012358D01*
G01X0002028Y0012336D01*
G01X0002008Y0012316D01*
G01X0001985Y0012301D01*
G01X0001960Y0012291D01*
G01X0001933Y0012285D01*
G01X0001906Y0012285D01*
G01X0001879Y0012291D01*
G01X0001854Y0012301D01*
G01X0001831Y0012316D01*
G01X0001812Y0012336D01*
G01X0001797Y0012358D01*
G01X0001786Y0012383D01*
G01X0001781Y0012410D01*
G01X0001781Y0012438D01*
G01X0001786Y0012464D01*
G01X0001797Y0012490D01*
G01X0001812Y0012512D01*
G01X0001831Y0012532D01*
G01X0001854Y0012547D01*
G01X0001879Y0012557D01*
G01X0001906Y0012563D01*
G01X0001933Y0012563D01*
G01X0001960Y0012557D01*
G01X0001960Y0012557D01*
G37*
G36*
G01X0005529Y0012757D02*
G01X0005554Y0012746D01*
G01X0005577Y0012731D01*
G01X0005596Y0012712D01*
G01X0005611Y0012689D01*
G01X0005622Y0012664D01*
G01X0005627Y0012637D01*
G01X0005627Y0012610D01*
G01X0005622Y0012583D01*
G01X0005611Y0012558D01*
G01X0005596Y0012535D01*
G01X0005577Y0012516D01*
G01X0005554Y0012500D01*
G01X0005529Y0012490D01*
G01X0005502Y0012485D01*
G01X0005475Y0012485D01*
G01X0005448Y0012490D01*
G01X0005423Y0012500D01*
G01X0005400Y0012516D01*
G01X0005381Y0012535D01*
G01X0005365Y0012558D01*
G01X0005355Y0012583D01*
G01X0005350Y0012610D01*
G01X0005350Y0012637D01*
G01X0005355Y0012664D01*
G01X0005365Y0012689D01*
G01X0005381Y0012712D01*
G01X0005400Y0012731D01*
G01X0005423Y0012746D01*
G01X0005448Y0012757D01*
G01X0005475Y0012762D01*
G01X0005502Y0012762D01*
G01X0005529Y0012757D01*
G01X0005529Y0012757D01*
G37*
G36*
G01X0001960Y0014027D02*
G01X0001985Y0014016D01*
G01X0002008Y0014001D01*
G01X0002028Y0013982D01*
G01X0002043Y0013959D01*
G01X0002053Y0013934D01*
G01X0002059Y0013907D01*
G01X0002059Y0013880D01*
G01X0002053Y0013853D01*
G01X0002043Y0013828D01*
G01X0002028Y0013805D01*
G01X0002008Y0013786D01*
G01X0001985Y0013770D01*
G01X0001960Y0013760D01*
G01X0001933Y0013755D01*
G01X0001906Y0013755D01*
G01X0001879Y0013760D01*
G01X0001854Y0013770D01*
G01X0001831Y0013786D01*
G01X0001812Y0013805D01*
G01X0001797Y0013828D01*
G01X0001786Y0013853D01*
G01X0001781Y0013880D01*
G01X0001781Y0013907D01*
G01X0001786Y0013934D01*
G01X0001797Y0013959D01*
G01X0001812Y0013982D01*
G01X0001831Y0014001D01*
G01X0001854Y0014016D01*
G01X0001879Y0014027D01*
G01X0001906Y0014032D01*
G01X0001933Y0014032D01*
G01X0001960Y0014027D01*
G01X0001960Y0014027D01*
G37*
G36*
G01X0005227Y0016045D02*
G01X0005252Y0016035D01*
G01X0005275Y0016020D01*
G01X0005294Y0016000D01*
G01X0005310Y0015978D01*
G01X0005320Y0015952D01*
G01X0005325Y0015926D01*
G01X0005325Y0015898D01*
G01X0005320Y0015871D01*
G01X0005310Y0015846D01*
G01X0005294Y0015823D01*
G01X0005275Y0015804D01*
G01X0005252Y0015789D01*
G01X0005227Y0015779D01*
G01X0005200Y0015773D01*
G01X0005173Y0015773D01*
G01X0005146Y0015779D01*
G01X0005121Y0015789D01*
G01X0005098Y0015804D01*
G01X0005079Y0015823D01*
G01X0005064Y0015846D01*
G01X0005053Y0015871D01*
G01X0005048Y0015898D01*
G01X0005048Y0015926D01*
G01X0005053Y0015952D01*
G01X0005064Y0015978D01*
G01X0005079Y0016000D01*
G01X0005098Y0016020D01*
G01X0005121Y0016035D01*
G01X0005146Y0016045D01*
G01X0005173Y0016051D01*
G01X0005200Y0016051D01*
G01X0005227Y0016045D01*
G01X0005227Y0016045D01*
G37*
G36*
G01X0010306Y0016559D02*
G01X0010352Y0016540D01*
G01X0010393Y0016512D01*
G01X0010429Y0016477D01*
G01X0010456Y0016435D01*
G01X0010476Y0016389D01*
G01X0010485Y0016340D01*
G01X0010485Y0016290D01*
G01X0010476Y0016241D01*
G01X0010456Y0016195D01*
G01X0010429Y0016153D01*
G01X0010393Y0016118D01*
G01X0010352Y0016090D01*
G01X0010306Y0016071D01*
G01X0010257Y0016061D01*
G01X0010207Y0016061D01*
G01X0010158Y0016071D01*
G01X0010111Y0016090D01*
G01X0010070Y0016118D01*
G01X0010035Y0016153D01*
G01X0010007Y0016195D01*
G01X0009988Y0016241D01*
G01X0009978Y0016290D01*
G01X0009978Y0016340D01*
G01X0009988Y0016389D01*
G01X0010007Y0016435D01*
G01X0010035Y0016477D01*
G01X0010070Y0016512D01*
G01X0010111Y0016540D01*
G01X0010158Y0016559D01*
G01X0010207Y0016569D01*
G01X0010257Y0016569D01*
G01X0010306Y0016559D01*
G01X0010306Y0016559D01*
G37*
G36*
G01X0009306Y0016559D02*
G01X0009352Y0016540D01*
G01X0009393Y0016512D01*
G01X0009429Y0016477D01*
G01X0009456Y0016435D01*
G01X0009476Y0016389D01*
G01X0009485Y0016340D01*
G01X0009485Y0016290D01*
G01X0009476Y0016241D01*
G01X0009456Y0016195D01*
G01X0009429Y0016153D01*
G01X0009393Y0016118D01*
G01X0009352Y0016090D01*
G01X0009306Y0016071D01*
G01X0009257Y0016061D01*
G01X0009207Y0016061D01*
G01X0009158Y0016071D01*
G01X0009111Y0016090D01*
G01X0009070Y0016118D01*
G01X0009035Y0016153D01*
G01X0009007Y0016195D01*
G01X0008988Y0016241D01*
G01X0008978Y0016290D01*
G01X0008978Y0016340D01*
G01X0008988Y0016389D01*
G01X0009007Y0016435D01*
G01X0009035Y0016477D01*
G01X0009070Y0016512D01*
G01X0009111Y0016540D01*
G01X0009158Y0016559D01*
G01X0009207Y0016569D01*
G01X0009257Y0016569D01*
G01X0009306Y0016559D01*
G01X0009306Y0016559D01*
G37*
G36*
G01X0014306Y0016559D02*
G01X0014352Y0016540D01*
G01X0014393Y0016512D01*
G01X0014429Y0016477D01*
G01X0014456Y0016435D01*
G01X0014476Y0016389D01*
G01X0014485Y0016340D01*
G01X0014485Y0016290D01*
G01X0014476Y0016241D01*
G01X0014456Y0016195D01*
G01X0014429Y0016153D01*
G01X0014393Y0016118D01*
G01X0014352Y0016090D01*
G01X0014306Y0016071D01*
G01X0014257Y0016061D01*
G01X0014207Y0016061D01*
G01X0014158Y0016071D01*
G01X0014111Y0016090D01*
G01X0014070Y0016118D01*
G01X0014035Y0016153D01*
G01X0014007Y0016195D01*
G01X0013988Y0016241D01*
G01X0013978Y0016290D01*
G01X0013978Y0016340D01*
G01X0013988Y0016389D01*
G01X0014007Y0016435D01*
G01X0014035Y0016477D01*
G01X0014070Y0016512D01*
G01X0014111Y0016540D01*
G01X0014158Y0016559D01*
G01X0014207Y0016569D01*
G01X0014257Y0016569D01*
G01X0014306Y0016559D01*
G01X0014306Y0016559D01*
G37*
G36*
G01X0011306Y0016559D02*
G01X0011352Y0016540D01*
G01X0011393Y0016512D01*
G01X0011429Y0016477D01*
G01X0011456Y0016435D01*
G01X0011476Y0016389D01*
G01X0011485Y0016340D01*
G01X0011485Y0016290D01*
G01X0011476Y0016241D01*
G01X0011456Y0016195D01*
G01X0011429Y0016153D01*
G01X0011393Y0016118D01*
G01X0011352Y0016090D01*
G01X0011306Y0016071D01*
G01X0011257Y0016061D01*
G01X0011207Y0016061D01*
G01X0011158Y0016071D01*
G01X0011111Y0016090D01*
G01X0011070Y0016118D01*
G01X0011035Y0016153D01*
G01X0011007Y0016195D01*
G01X0010988Y0016241D01*
G01X0010978Y0016290D01*
G01X0010978Y0016340D01*
G01X0010988Y0016389D01*
G01X0011007Y0016435D01*
G01X0011035Y0016477D01*
G01X0011070Y0016512D01*
G01X0011111Y0016540D01*
G01X0011158Y0016559D01*
G01X0011207Y0016569D01*
G01X0011257Y0016569D01*
G01X0011306Y0016559D01*
G01X0011306Y0016559D01*
G37*
G36*
G01X0012306Y0016559D02*
G01X0012352Y0016540D01*
G01X0012393Y0016512D01*
G01X0012429Y0016477D01*
G01X0012456Y0016435D01*
G01X0012476Y0016389D01*
G01X0012485Y0016340D01*
G01X0012485Y0016290D01*
G01X0012476Y0016241D01*
G01X0012456Y0016195D01*
G01X0012429Y0016153D01*
G01X0012393Y0016118D01*
G01X0012352Y0016090D01*
G01X0012306Y0016071D01*
G01X0012257Y0016061D01*
G01X0012207Y0016061D01*
G01X0012158Y0016071D01*
G01X0012111Y0016090D01*
G01X0012070Y0016118D01*
G01X0012035Y0016153D01*
G01X0012007Y0016195D01*
G01X0011988Y0016241D01*
G01X0011978Y0016290D01*
G01X0011978Y0016340D01*
G01X0011988Y0016389D01*
G01X0012007Y0016435D01*
G01X0012035Y0016477D01*
G01X0012070Y0016512D01*
G01X0012111Y0016540D01*
G01X0012158Y0016559D01*
G01X0012207Y0016569D01*
G01X0012257Y0016569D01*
G01X0012306Y0016559D01*
G01X0012306Y0016559D01*
G37*
G36*
G01X0013306Y0016559D02*
G01X0013352Y0016540D01*
G01X0013393Y0016512D01*
G01X0013429Y0016477D01*
G01X0013456Y0016435D01*
G01X0013476Y0016389D01*
G01X0013485Y0016340D01*
G01X0013485Y0016290D01*
G01X0013476Y0016241D01*
G01X0013456Y0016195D01*
G01X0013429Y0016153D01*
G01X0013393Y0016118D01*
G01X0013352Y0016090D01*
G01X0013306Y0016071D01*
G01X0013257Y0016061D01*
G01X0013207Y0016061D01*
G01X0013158Y0016071D01*
G01X0013111Y0016090D01*
G01X0013070Y0016118D01*
G01X0013035Y0016153D01*
G01X0013007Y0016195D01*
G01X0012988Y0016241D01*
G01X0012978Y0016290D01*
G01X0012978Y0016340D01*
G01X0012988Y0016389D01*
G01X0013007Y0016435D01*
G01X0013035Y0016477D01*
G01X0013070Y0016512D01*
G01X0013111Y0016540D01*
G01X0013158Y0016559D01*
G01X0013207Y0016569D01*
G01X0013257Y0016569D01*
G01X0013306Y0016559D01*
G01X0013306Y0016559D01*
G37*
G36*
G01X0007306Y0016559D02*
G01X0007352Y0016540D01*
G01X0007393Y0016512D01*
G01X0007429Y0016477D01*
G01X0007456Y0016435D01*
G01X0007476Y0016389D01*
G01X0007485Y0016340D01*
G01X0007485Y0016290D01*
G01X0007476Y0016241D01*
G01X0007456Y0016195D01*
G01X0007429Y0016153D01*
G01X0007393Y0016118D01*
G01X0007352Y0016090D01*
G01X0007306Y0016071D01*
G01X0007257Y0016061D01*
G01X0007207Y0016061D01*
G01X0007158Y0016071D01*
G01X0007111Y0016090D01*
G01X0007070Y0016118D01*
G01X0007035Y0016153D01*
G01X0007007Y0016195D01*
G01X0006988Y0016241D01*
G01X0006978Y0016290D01*
G01X0006978Y0016340D01*
G01X0006988Y0016389D01*
G01X0007007Y0016435D01*
G01X0007035Y0016477D01*
G01X0007070Y0016512D01*
G01X0007111Y0016540D01*
G01X0007158Y0016559D01*
G01X0007207Y0016569D01*
G01X0007257Y0016569D01*
G01X0007306Y0016559D01*
G01X0007306Y0016559D01*
G37*
G36*
G01X0008306Y0016559D02*
G01X0008352Y0016540D01*
G01X0008393Y0016512D01*
G01X0008429Y0016477D01*
G01X0008456Y0016435D01*
G01X0008476Y0016389D01*
G01X0008485Y0016340D01*
G01X0008485Y0016290D01*
G01X0008476Y0016241D01*
G01X0008456Y0016195D01*
G01X0008429Y0016153D01*
G01X0008393Y0016118D01*
G01X0008352Y0016090D01*
G01X0008306Y0016071D01*
G01X0008257Y0016061D01*
G01X0008207Y0016061D01*
G01X0008158Y0016071D01*
G01X0008111Y0016090D01*
G01X0008070Y0016118D01*
G01X0008035Y0016153D01*
G01X0008007Y0016195D01*
G01X0007988Y0016241D01*
G01X0007978Y0016290D01*
G01X0007978Y0016340D01*
G01X0007988Y0016389D01*
G01X0008007Y0016435D01*
G01X0008035Y0016477D01*
G01X0008070Y0016512D01*
G01X0008111Y0016540D01*
G01X0008158Y0016559D01*
G01X0008207Y0016569D01*
G01X0008257Y0016569D01*
G01X0008306Y0016559D01*
G01X0008306Y0016559D01*
G37*
G36*
G01X0015306Y0016559D02*
G01X0015352Y0016540D01*
G01X0015393Y0016512D01*
G01X0015429Y0016477D01*
G01X0015456Y0016435D01*
G01X0015476Y0016389D01*
G01X0015485Y0016340D01*
G01X0015485Y0016290D01*
G01X0015476Y0016241D01*
G01X0015456Y0016195D01*
G01X0015429Y0016153D01*
G01X0015393Y0016118D01*
G01X0015352Y0016090D01*
G01X0015306Y0016071D01*
G01X0015257Y0016061D01*
G01X0015207Y0016061D01*
G01X0015158Y0016071D01*
G01X0015111Y0016090D01*
G01X0015070Y0016118D01*
G01X0015035Y0016153D01*
G01X0015007Y0016195D01*
G01X0014988Y0016241D01*
G01X0014978Y0016290D01*
G01X0014978Y0016340D01*
G01X0014988Y0016389D01*
G01X0015007Y0016435D01*
G01X0015035Y0016477D01*
G01X0015070Y0016512D01*
G01X0015111Y0016540D01*
G01X0015158Y0016559D01*
G01X0015207Y0016569D01*
G01X0015257Y0016569D01*
G01X0015306Y0016559D01*
G01X0015306Y0016559D01*
G37*
G36*
G01X0016306Y0016559D02*
G01X0016352Y0016540D01*
G01X0016393Y0016512D01*
G01X0016429Y0016477D01*
G01X0016456Y0016435D01*
G01X0016476Y0016389D01*
G01X0016485Y0016340D01*
G01X0016485Y0016290D01*
G01X0016476Y0016241D01*
G01X0016456Y0016195D01*
G01X0016429Y0016153D01*
G01X0016393Y0016118D01*
G01X0016352Y0016090D01*
G01X0016306Y0016071D01*
G01X0016257Y0016061D01*
G01X0016207Y0016061D01*
G01X0016158Y0016071D01*
G01X0016111Y0016090D01*
G01X0016070Y0016118D01*
G01X0016035Y0016153D01*
G01X0016007Y0016195D01*
G01X0015988Y0016241D01*
G01X0015978Y0016290D01*
G01X0015978Y0016340D01*
G01X0015988Y0016389D01*
G01X0016007Y0016435D01*
G01X0016035Y0016477D01*
G01X0016070Y0016512D01*
G01X0016111Y0016540D01*
G01X0016158Y0016559D01*
G01X0016207Y0016569D01*
G01X0016257Y0016569D01*
G01X0016306Y0016559D01*
G01X0016306Y0016559D01*
G37*
M02*
