G04 This is an RS-274x file exported by *
G04 gerbv version 2.6.2 *
G04 More information is available about gerbv at *
G04 http://gerbv.geda-project.org/ *
G04 --End of header info--*
%MOIN*%
%FSLAX34Y34*%
%IPPOS*%
G04 --Define apertures--*
%ADD10C,0.0004*%
%ADD11C,0.0984*%
%ADD12C,0.0350*%
%ADD13C,0.0120*%
G04 --Start main section--*
G54D10*
G36*
G01X0001948Y0013923D02*
G01X0001959Y0013918D01*
G01X0001974Y0013910D01*
G01X0001991Y0013900D01*
G01X0002008Y0013890D01*
G01X0002010Y0013888D01*
G01X0002058Y0013849D01*
G01X0002100Y0013803D01*
G01X0002135Y0013751D01*
G01X0002163Y0013693D01*
G01X0002176Y0013653D01*
G01X0002178Y0013645D01*
G01X0002180Y0013638D01*
G01X0002181Y0013630D01*
G01X0002183Y0013621D01*
G01X0002184Y0013610D01*
G01X0002185Y0013597D01*
G01X0002185Y0013580D01*
G01X0002186Y0013559D01*
G01X0002187Y0013533D01*
G01X0002187Y0013502D01*
G01X0002187Y0013464D01*
G01X0002188Y0013420D01*
G01X0002188Y0013368D01*
G01X0002188Y0013308D01*
G01X0002189Y0013239D01*
G01X0002189Y0013208D01*
G01X0002189Y0013124D01*
G01X0002189Y0013051D01*
G01X0002190Y0012986D01*
G01X0002189Y0012928D01*
G01X0002189Y0012879D01*
G01X0002188Y0012835D01*
G01X0002187Y0012798D01*
G01X0002185Y0012766D01*
G01X0002183Y0012738D01*
G01X0002181Y0012715D01*
G01X0002177Y0012694D01*
G01X0002173Y0012676D01*
G01X0002169Y0012660D01*
G01X0002164Y0012645D01*
G01X0002158Y0012631D01*
G01X0002151Y0012616D01*
G01X0002144Y0012603D01*
G01X0002120Y0012561D01*
G01X0002090Y0012521D01*
G01X0002057Y0012486D01*
G01X0002024Y0012458D01*
G01X0002014Y0012451D01*
G01X0001991Y0012437D01*
G01X0002021Y0012415D01*
G01X0002069Y0012374D01*
G01X0002109Y0012327D01*
G01X0002142Y0012274D01*
G01X0002166Y0012216D01*
G01X0002181Y0012154D01*
G01X0002185Y0012124D01*
G01X0002186Y0012107D01*
G01X0002187Y0012081D01*
G01X0002188Y0012046D01*
G01X0002189Y0012001D01*
G01X0002189Y0011947D01*
G01X0002189Y0011885D01*
G01X0002189Y0011814D01*
G01X0002189Y0011735D01*
G01X0002189Y0011665D01*
G01X0002188Y0011591D01*
G01X0002188Y0011527D01*
G01X0002188Y0011472D01*
G01X0002188Y0011424D01*
G01X0002187Y0011384D01*
G01X0002187Y0011350D01*
G01X0002186Y0011322D01*
G01X0002186Y0011299D01*
G01X0002185Y0011280D01*
G01X0002184Y0011265D01*
G01X0002183Y0011253D01*
G01X0002182Y0011243D01*
G01X0002180Y0011235D01*
G01X0002179Y0011228D01*
G01X0002177Y0011221D01*
G01X0002177Y0011220D01*
G01X0002155Y0011158D01*
G01X0002125Y0011102D01*
G01X0002088Y0011053D01*
G01X0002045Y0011010D01*
G01X0002013Y0010986D01*
G01X0001997Y0010975D01*
G01X0001985Y0010965D01*
G01X0001978Y0010959D01*
G01X0001978Y0010958D01*
G01X0001981Y0010953D01*
G01X0001992Y0010944D01*
G01X0002007Y0010933D01*
G01X0002013Y0010929D01*
G01X0002060Y0010892D01*
G01X0002101Y0010847D01*
G01X0002134Y0010797D01*
G01X0002160Y0010742D01*
G01X0002178Y0010684D01*
G01X0002185Y0010640D01*
G01X0002186Y0010626D01*
G01X0002187Y0010604D01*
G01X0002187Y0010573D01*
G01X0002188Y0010535D01*
G01X0002188Y0010490D01*
G01X0002189Y0010439D01*
G01X0002189Y0010383D01*
G01X0002190Y0010323D01*
G01X0002190Y0010259D01*
G01X0002190Y0010213D01*
G01X0002190Y0010147D01*
G01X0002190Y0010084D01*
G01X0002189Y0010025D01*
G01X0002189Y0009970D01*
G01X0002188Y0009921D01*
G01X0002188Y0009878D01*
G01X0002187Y0009842D01*
G01X0002186Y0009814D01*
G01X0002185Y0009794D01*
G01X0002185Y0009785D01*
G01X0002174Y0009725D01*
G01X0002154Y0009667D01*
G01X0002126Y0009614D01*
G01X0002090Y0009565D01*
G01X0002048Y0009523D01*
G01X0002013Y0009496D01*
G01X0001997Y0009485D01*
G01X0001984Y0009476D01*
G01X0001976Y0009470D01*
G01X0001975Y0009469D01*
G01X0001978Y0009465D01*
G01X0001987Y0009457D01*
G01X0002002Y0009447D01*
G01X0002011Y0009440D01*
G01X0002059Y0009402D01*
G01X0002100Y0009357D01*
G01X0002135Y0009307D01*
G01X0002161Y0009251D01*
G01X0002178Y0009192D01*
G01X0002185Y0009150D01*
G01X0002186Y0009136D01*
G01X0002187Y0009112D01*
G01X0002187Y0009081D01*
G01X0002188Y0009043D01*
G01X0002189Y0008999D01*
G01X0002189Y0008950D01*
G01X0002189Y0008897D01*
G01X0002190Y0008841D01*
G01X0002190Y0008783D01*
G01X0002190Y0008724D01*
G01X0002190Y0008665D01*
G01X0002190Y0008607D01*
G01X0002189Y0008550D01*
G01X0002189Y0008497D01*
G01X0002189Y0008448D01*
G01X0002188Y0008404D01*
G01X0002187Y0008365D01*
G01X0002187Y0008334D01*
G01X0002186Y0008311D01*
G01X0002185Y0008296D01*
G01X0002185Y0008296D01*
G01X0002173Y0008233D01*
G01X0002153Y0008175D01*
G01X0002124Y0008120D01*
G01X0002086Y0008071D01*
G01X0002040Y0008026D01*
G01X0001986Y0007987D01*
G01X0001977Y0007982D01*
G01X0001974Y0007979D01*
G01X0001976Y0007975D01*
G01X0001984Y0007968D01*
G01X0001999Y0007959D01*
G01X0002048Y0007922D01*
G01X0002091Y0007879D01*
G01X0002128Y0007828D01*
G01X0002157Y0007772D01*
G01X0002176Y0007718D01*
G01X0002178Y0007710D01*
G01X0002180Y0007703D01*
G01X0002181Y0007696D01*
G01X0002182Y0007687D01*
G01X0002184Y0007676D01*
G01X0002184Y0007663D01*
G01X0002185Y0007647D01*
G01X0002186Y0007626D01*
G01X0002187Y0007601D01*
G01X0002187Y0007571D01*
G01X0002187Y0007534D01*
G01X0002188Y0007491D01*
G01X0002188Y0007440D01*
G01X0002188Y0007381D01*
G01X0002189Y0007313D01*
G01X0002189Y0007270D01*
G01X0002189Y0007187D01*
G01X0002189Y0007110D01*
G01X0002189Y0007042D01*
G01X0002189Y0006981D01*
G01X0002189Y0006929D01*
G01X0002188Y0006886D01*
G01X0002187Y0006851D01*
G01X0002186Y0006826D01*
G01X0002185Y0006812D01*
G01X0002175Y0006748D01*
G01X0002156Y0006690D01*
G01X0002128Y0006637D01*
G01X0002092Y0006588D01*
G01X0002073Y0006567D01*
G01X0002053Y0006548D01*
G01X0002031Y0006529D01*
G01X0002011Y0006514D01*
G01X0002001Y0006506D01*
G01X0001970Y0006487D01*
G01X0002000Y0006468D01*
G01X0002049Y0006432D01*
G01X0002091Y0006389D01*
G01X0002127Y0006338D01*
G01X0002156Y0006282D01*
G01X0002177Y0006223D01*
G01X0002178Y0006215D01*
G01X0002180Y0006208D01*
G01X0002182Y0006201D01*
G01X0002183Y0006193D01*
G01X0002184Y0006182D01*
G01X0002185Y0006169D01*
G01X0002185Y0006153D01*
G01X0002186Y0006133D01*
G01X0002187Y0006108D01*
G01X0002187Y0006079D01*
G01X0002187Y0006043D01*
G01X0002187Y0006001D01*
G01X0002187Y0005951D01*
G01X0002187Y0005894D01*
G01X0002187Y0005828D01*
G01X0002187Y0005753D01*
G01X0002188Y0005745D01*
G01X0002188Y0005667D01*
G01X0002187Y0005598D01*
G01X0002187Y0005538D01*
G01X0002187Y0005485D01*
G01X0002187Y0005440D01*
G01X0002186Y0005401D01*
G01X0002186Y0005369D01*
G01X0002185Y0005341D01*
G01X0002184Y0005318D01*
G01X0002182Y0005299D01*
G01X0002180Y0005282D01*
G01X0002178Y0005268D01*
G01X0002175Y0005256D01*
G01X0002172Y0005245D01*
G01X0002169Y0005234D01*
G01X0002165Y0005223D01*
G01X0002160Y0005211D01*
G01X0002159Y0005209D01*
G01X0002134Y0005157D01*
G01X0002100Y0005107D01*
G01X0002060Y0005063D01*
G01X0002014Y0005025D01*
G01X0002006Y0005020D01*
G01X0001970Y0004996D01*
G01X0001999Y0004979D01*
G01X0002036Y0004951D01*
G01X0002073Y0004917D01*
G01X0002106Y0004879D01*
G01X0002134Y0004839D01*
G01X0002153Y0004803D01*
G01X0002159Y0004787D01*
G01X0002165Y0004773D01*
G01X0002169Y0004758D01*
G01X0002174Y0004743D01*
G01X0002177Y0004726D01*
G01X0002180Y0004707D01*
G01X0002183Y0004685D01*
G01X0002185Y0004660D01*
G01X0002187Y0004630D01*
G01X0002188Y0004596D01*
G01X0002189Y0004556D01*
G01X0002189Y0004510D01*
G01X0002189Y0004457D01*
G01X0002190Y0004396D01*
G01X0002189Y0004327D01*
G01X0002189Y0004249D01*
G01X0002189Y0004213D01*
G01X0002189Y0004139D01*
G01X0002188Y0004075D01*
G01X0002188Y0004020D01*
G01X0002188Y0003973D01*
G01X0002187Y0003933D01*
G01X0002187Y0003899D01*
G01X0002186Y0003871D01*
G01X0002186Y0003848D01*
G01X0002185Y0003829D01*
G01X0002184Y0003815D01*
G01X0002183Y0003803D01*
G01X0002182Y0003793D01*
G01X0002180Y0003785D01*
G01X0002179Y0003778D01*
G01X0002177Y0003771D01*
G01X0002176Y0003770D01*
G01X0002154Y0003707D01*
G01X0002124Y0003650D01*
G01X0002086Y0003600D01*
G01X0002041Y0003556D01*
G01X0002004Y0003528D01*
G01X0001970Y0003506D01*
G01X0002001Y0003487D01*
G01X0002038Y0003460D01*
G01X0002074Y0003426D01*
G01X0002107Y0003387D01*
G01X0002135Y0003346D01*
G01X0002155Y0003305D01*
G01X0002155Y0003304D01*
G01X0002161Y0003289D01*
G01X0002166Y0003275D01*
G01X0002171Y0003261D01*
G01X0002175Y0003246D01*
G01X0002178Y0003230D01*
G01X0002181Y0003211D01*
G01X0002184Y0003191D01*
G01X0002185Y0003166D01*
G01X0002187Y0003138D01*
G01X0002188Y0003105D01*
G01X0002189Y0003067D01*
G01X0002189Y0003022D01*
G01X0002190Y0002971D01*
G01X0002190Y0002912D01*
G01X0002189Y0002844D01*
G01X0002189Y0002768D01*
G01X0002189Y0002723D01*
G01X0002189Y0002649D01*
G01X0002188Y0002585D01*
G01X0002188Y0002530D01*
G01X0002188Y0002483D01*
G01X0002187Y0002443D01*
G01X0002187Y0002409D01*
G01X0002186Y0002381D01*
G01X0002186Y0002358D01*
G01X0002185Y0002339D01*
G01X0002184Y0002325D01*
G01X0002183Y0002313D01*
G01X0002182Y0002303D01*
G01X0002180Y0002295D01*
G01X0002179Y0002288D01*
G01X0002177Y0002281D01*
G01X0002176Y0002280D01*
G01X0002155Y0002219D01*
G01X0002127Y0002165D01*
G01X0002092Y0002117D01*
G01X0002056Y0002079D01*
G01X0002037Y0002063D01*
G01X0002016Y0002047D01*
G01X0001995Y0002033D01*
G01X0001976Y0002021D01*
G01X0001960Y0002013D01*
G01X0001951Y0002010D01*
G01X0001946Y0002014D01*
G01X0001938Y0002025D01*
G01X0001932Y0002039D01*
G01X0001925Y0002054D01*
G01X0001919Y0002066D01*
G01X0001917Y0002071D01*
G01X0001920Y0002074D01*
G01X0001930Y0002082D01*
G01X0001945Y0002091D01*
G01X0001949Y0002093D01*
G01X0001991Y0002123D01*
G01X0002030Y0002161D01*
G01X0002062Y0002205D01*
G01X0002087Y0002253D01*
G01X0002093Y0002267D01*
G01X0002097Y0002278D01*
G01X0002100Y0002290D01*
G01X0002103Y0002302D01*
G01X0002106Y0002315D01*
G01X0002108Y0002330D01*
G01X0002110Y0002349D01*
G01X0002111Y0002370D01*
G01X0002112Y0002396D01*
G01X0002113Y0002427D01*
G01X0002114Y0002463D01*
G01X0002114Y0002506D01*
G01X0002114Y0002555D01*
G01X0002114Y0002612D01*
G01X0002114Y0002677D01*
G01X0002114Y0002751D01*
G01X0002114Y0002790D01*
G01X0002113Y0002865D01*
G01X0002113Y0002931D01*
G01X0002113Y0002989D01*
G01X0002112Y0003039D01*
G01X0002112Y0003081D01*
G01X0002111Y0003117D01*
G01X0002110Y0003148D01*
G01X0002109Y0003173D01*
G01X0002107Y0003194D01*
G01X0002105Y0003212D01*
G01X0002103Y0003226D01*
G01X0002100Y0003239D01*
G01X0002097Y0003250D01*
G01X0002092Y0003261D01*
G01X0002088Y0003271D01*
G01X0002082Y0003283D01*
G01X0002076Y0003295D01*
G01X0002059Y0003324D01*
G01X0002035Y0003354D01*
G01X0002007Y0003384D01*
G01X0001978Y0003410D01*
G01X0001949Y0003430D01*
G01X0001941Y0003434D01*
G01X0001926Y0003443D01*
G01X0001915Y0003449D01*
G01X0001910Y0003453D01*
G01X0001910Y0003453D01*
G01X0001912Y0003458D01*
G01X0001916Y0003470D01*
G01X0001923Y0003486D01*
G01X0001923Y0003487D01*
G01X0001936Y0003519D01*
G01X0001926Y0003542D01*
G01X0001916Y0003564D01*
G01X0001949Y0003583D01*
G01X0001991Y0003613D01*
G01X0002030Y0003651D01*
G01X0002062Y0003694D01*
G01X0002087Y0003742D01*
G01X0002093Y0003757D01*
G01X0002097Y0003768D01*
G01X0002100Y0003780D01*
G01X0002103Y0003792D01*
G01X0002106Y0003805D01*
G01X0002108Y0003820D01*
G01X0002110Y0003839D01*
G01X0002111Y0003860D01*
G01X0002112Y0003886D01*
G01X0002113Y0003917D01*
G01X0002114Y0003953D01*
G01X0002114Y0003996D01*
G01X0002114Y0004045D01*
G01X0002114Y0004102D01*
G01X0002114Y0004167D01*
G01X0002114Y0004241D01*
G01X0002114Y0004280D01*
G01X0002113Y0004355D01*
G01X0002113Y0004421D01*
G01X0002113Y0004479D01*
G01X0002112Y0004529D01*
G01X0002112Y0004571D01*
G01X0002111Y0004607D01*
G01X0002110Y0004638D01*
G01X0002109Y0004663D01*
G01X0002107Y0004684D01*
G01X0002105Y0004702D01*
G01X0002103Y0004716D01*
G01X0002100Y0004729D01*
G01X0002097Y0004740D01*
G01X0002092Y0004751D01*
G01X0002088Y0004761D01*
G01X0002082Y0004773D01*
G01X0002076Y0004785D01*
G01X0002059Y0004814D01*
G01X0002035Y0004844D01*
G01X0002007Y0004874D01*
G01X0001978Y0004900D01*
G01X0001949Y0004920D01*
G01X0001941Y0004924D01*
G01X0001926Y0004933D01*
G01X0001915Y0004939D01*
G01X0001910Y0004942D01*
G01X0001910Y0004942D01*
G01X0001912Y0004948D01*
G01X0001917Y0004959D01*
G01X0001923Y0004975D01*
G01X0001937Y0005006D01*
G01X0001926Y0005030D01*
G01X0001916Y0005054D01*
G01X0001949Y0005073D01*
G01X0001991Y0005103D01*
G01X0002029Y0005141D01*
G01X0002062Y0005184D01*
G01X0002087Y0005231D01*
G01X0002093Y0005247D01*
G01X0002097Y0005258D01*
G01X0002100Y0005270D01*
G01X0002103Y0005282D01*
G01X0002106Y0005295D01*
G01X0002108Y0005310D01*
G01X0002110Y0005329D01*
G01X0002111Y0005350D01*
G01X0002112Y0005376D01*
G01X0002113Y0005407D01*
G01X0002114Y0005443D01*
G01X0002114Y0005486D01*
G01X0002114Y0005535D01*
G01X0002114Y0005592D01*
G01X0002114Y0005657D01*
G01X0002114Y0005731D01*
G01X0002114Y0005770D01*
G01X0002113Y0005845D01*
G01X0002113Y0005911D01*
G01X0002113Y0005969D01*
G01X0002112Y0006019D01*
G01X0002112Y0006061D01*
G01X0002111Y0006097D01*
G01X0002110Y0006128D01*
G01X0002109Y0006153D01*
G01X0002107Y0006174D01*
G01X0002105Y0006192D01*
G01X0002103Y0006206D01*
G01X0002100Y0006219D01*
G01X0002097Y0006230D01*
G01X0002092Y0006241D01*
G01X0002088Y0006251D01*
G01X0002082Y0006263D01*
G01X0002076Y0006275D01*
G01X0002059Y0006304D01*
G01X0002035Y0006335D01*
G01X0002007Y0006364D01*
G01X0001977Y0006390D01*
G01X0001948Y0006411D01*
G01X0001941Y0006414D01*
G01X0001925Y0006423D01*
G01X0001915Y0006431D01*
G01X0001912Y0006437D01*
G01X0001912Y0006437D01*
G01X0001915Y0006444D01*
G01X0001921Y0006458D01*
G01X0001925Y0006469D01*
G01X0001936Y0006495D01*
G01X0001926Y0006520D01*
G01X0001916Y0006544D01*
G01X0001950Y0006565D01*
G01X0001996Y0006598D01*
G01X0002036Y0006638D01*
G01X0002068Y0006684D01*
G01X0002091Y0006735D01*
G01X0002107Y0006790D01*
G01X0002110Y0006807D01*
G01X0002111Y0006819D01*
G01X0002111Y0006840D01*
G01X0002112Y0006869D01*
G01X0002113Y0006905D01*
G01X0002113Y0006947D01*
G01X0002114Y0006995D01*
G01X0002114Y0007046D01*
G01X0002115Y0007101D01*
G01X0002115Y0007157D01*
G01X0002115Y0007216D01*
G01X0002115Y0007274D01*
G01X0002115Y0007331D01*
G01X0002115Y0007387D01*
G01X0002114Y0007440D01*
G01X0002114Y0007490D01*
G01X0002113Y0007535D01*
G01X0002113Y0007574D01*
G01X0002112Y0007607D01*
G01X0002111Y0007632D01*
G01X0002110Y0007649D01*
G01X0002110Y0007653D01*
G01X0002098Y0007709D01*
G01X0002077Y0007761D01*
G01X0002049Y0007808D01*
G01X0002013Y0007850D01*
G01X0001971Y0007885D01*
G01X0001954Y0007896D01*
G01X0001938Y0007906D01*
G01X0001924Y0007914D01*
G01X0001917Y0007918D01*
G01X0001917Y0007919D01*
G01X0001914Y0007924D01*
G01X0001916Y0007934D01*
G01X0001923Y0007952D01*
G01X0001924Y0007953D01*
G01X0001937Y0007984D01*
G01X0001926Y0008009D01*
G01X0001916Y0008034D01*
G01X0001950Y0008055D01*
G01X0001994Y0008087D01*
G01X0002033Y0008126D01*
G01X0002066Y0008171D01*
G01X0002090Y0008219D01*
G01X0002093Y0008227D01*
G01X0002097Y0008238D01*
G01X0002100Y0008250D01*
G01X0002103Y0008262D01*
G01X0002106Y0008275D01*
G01X0002108Y0008290D01*
G01X0002110Y0008309D01*
G01X0002111Y0008330D01*
G01X0002112Y0008356D01*
G01X0002113Y0008387D01*
G01X0002114Y0008423D01*
G01X0002114Y0008466D01*
G01X0002114Y0008515D01*
G01X0002114Y0008573D01*
G01X0002114Y0008638D01*
G01X0002114Y0008712D01*
G01X0002114Y0008750D01*
G01X0002114Y0008824D01*
G01X0002113Y0008889D01*
G01X0002113Y0008945D01*
G01X0002112Y0008993D01*
G01X0002112Y0009034D01*
G01X0002112Y0009068D01*
G01X0002111Y0009097D01*
G01X0002110Y0009120D01*
G01X0002110Y0009139D01*
G01X0002109Y0009153D01*
G01X0002108Y0009165D01*
G01X0002106Y0009174D01*
G01X0002105Y0009181D01*
G01X0002104Y0009188D01*
G01X0002084Y0009240D01*
G01X0002056Y0009288D01*
G01X0002022Y0009331D01*
G01X0001983Y0009367D01*
G01X0001939Y0009395D01*
G01X0001939Y0009395D01*
G01X0001910Y0009410D01*
G01X0001923Y0009438D01*
G01X0001930Y0009456D01*
G01X0001934Y0009469D01*
G01X0001934Y0009479D01*
G01X0001930Y0009491D01*
G01X0001925Y0009502D01*
G01X0001916Y0009525D01*
G01X0001942Y0009540D01*
G01X0001989Y0009572D01*
G01X0002029Y0009611D01*
G01X0002063Y0009656D01*
G01X0002078Y0009683D01*
G01X0002084Y0009695D01*
G01X0002089Y0009705D01*
G01X0002093Y0009716D01*
G01X0002097Y0009726D01*
G01X0002101Y0009737D01*
G01X0002104Y0009750D01*
G01X0002106Y0009765D01*
G01X0002108Y0009782D01*
G01X0002109Y0009804D01*
G01X0002111Y0009830D01*
G01X0002111Y0009861D01*
G01X0002112Y0009898D01*
G01X0002113Y0009941D01*
G01X0002113Y0009991D01*
G01X0002113Y0010050D01*
G01X0002114Y0010117D01*
G01X0002114Y0010185D01*
G01X0002114Y0010264D01*
G01X0002114Y0010333D01*
G01X0002114Y0010394D01*
G01X0002114Y0010447D01*
G01X0002114Y0010493D01*
G01X0002114Y0010532D01*
G01X0002113Y0010565D01*
G01X0002112Y0010593D01*
G01X0002110Y0010617D01*
G01X0002109Y0010636D01*
G01X0002107Y0010653D01*
G01X0002104Y0010667D01*
G01X0002102Y0010680D01*
G01X0002098Y0010691D01*
G01X0002095Y0010703D01*
G01X0002093Y0010708D01*
G01X0002070Y0010757D01*
G01X0002039Y0010803D01*
G01X0002000Y0010843D01*
G01X0001957Y0010876D01*
G01X0001950Y0010880D01*
G01X0001934Y0010891D01*
G01X0001921Y0010899D01*
G01X0001915Y0010905D01*
G01X0001915Y0010905D01*
G01X0001917Y0010912D01*
G01X0001922Y0010925D01*
G01X0001927Y0010936D01*
G01X0001933Y0010952D01*
G01X0001936Y0010962D01*
G01X0001935Y0010970D01*
G01X0001930Y0010980D01*
G01X0001930Y0010980D01*
G01X0001921Y0010998D01*
G01X0001918Y0011010D01*
G01X0001920Y0011018D01*
G01X0001927Y0011023D01*
G01X0001935Y0011027D01*
G01X0001965Y0011044D01*
G01X0001996Y0011068D01*
G01X0002025Y0011098D01*
G01X0002052Y0011130D01*
G01X0002073Y0011163D01*
G01X0002077Y0011173D01*
G01X0002083Y0011185D01*
G01X0002089Y0011196D01*
G01X0002093Y0011206D01*
G01X0002097Y0011217D01*
G01X0002101Y0011228D01*
G01X0002103Y0011240D01*
G01X0002106Y0011255D01*
G01X0002108Y0011273D01*
G01X0002109Y0011294D01*
G01X0002110Y0011320D01*
G01X0002111Y0011351D01*
G01X0002112Y0011387D01*
G01X0002112Y0011430D01*
G01X0002113Y0011480D01*
G01X0002113Y0011538D01*
G01X0002113Y0011605D01*
G01X0002114Y0011675D01*
G01X0002114Y0011754D01*
G01X0002114Y0011823D01*
G01X0002114Y0011884D01*
G01X0002114Y0011937D01*
G01X0002114Y0011983D01*
G01X0002114Y0012022D01*
G01X0002113Y0012055D01*
G01X0002112Y0012083D01*
G01X0002110Y0012107D01*
G01X0002109Y0012126D01*
G01X0002107Y0012143D01*
G01X0002104Y0012157D01*
G01X0002102Y0012170D01*
G01X0002098Y0012181D01*
G01X0002095Y0012193D01*
G01X0002093Y0012198D01*
G01X0002070Y0012248D01*
G01X0002038Y0012294D01*
G01X0001999Y0012334D01*
G01X0001954Y0012368D01*
G01X0001950Y0012370D01*
G01X0001934Y0012381D01*
G01X0001921Y0012389D01*
G01X0001915Y0012395D01*
G01X0001915Y0012395D01*
G01X0001917Y0012402D01*
G01X0001922Y0012414D01*
G01X0001923Y0012417D01*
G01X0001928Y0012432D01*
G01X0001927Y0012447D01*
G01X0001922Y0012467D01*
G01X0001917Y0012478D01*
G01X0001920Y0012482D01*
G01X0001930Y0012489D01*
G01X0001944Y0012497D01*
G01X0001970Y0012514D01*
G01X0001997Y0012537D01*
G01X0002025Y0012564D01*
G01X0002049Y0012593D01*
G01X0002069Y0012622D01*
G01X0002076Y0012635D01*
G01X0002082Y0012648D01*
G01X0002088Y0012659D01*
G01X0002093Y0012670D01*
G01X0002097Y0012680D01*
G01X0002100Y0012691D01*
G01X0002103Y0012704D01*
G01X0002105Y0012719D01*
G01X0002107Y0012736D01*
G01X0002109Y0012758D01*
G01X0002110Y0012783D01*
G01X0002111Y0012814D01*
G01X0002112Y0012850D01*
G01X0002112Y0012892D01*
G01X0002113Y0012942D01*
G01X0002113Y0013000D01*
G01X0002113Y0013066D01*
G01X0002114Y0013140D01*
G01X0002114Y0013219D01*
G01X0002114Y0013288D01*
G01X0002114Y0013349D01*
G01X0002114Y0013402D01*
G01X0002114Y0013448D01*
G01X0002114Y0013487D01*
G01X0002113Y0013520D01*
G01X0002112Y0013548D01*
G01X0002110Y0013572D01*
G01X0002109Y0013591D01*
G01X0002107Y0013608D01*
G01X0002104Y0013622D01*
G01X0002102Y0013635D01*
G01X0002098Y0013646D01*
G01X0002095Y0013658D01*
G01X0002093Y0013663D01*
G01X0002070Y0013712D01*
G01X0002040Y0013757D01*
G01X0002003Y0013797D01*
G01X0001961Y0013829D01*
G01X0001949Y0013837D01*
G01X0001933Y0013847D01*
G01X0001921Y0013855D01*
G01X0001915Y0013859D01*
G01X0001915Y0013860D01*
G01X0001917Y0013866D01*
G01X0001922Y0013878D01*
G01X0001928Y0013893D01*
G01X0001934Y0013907D01*
G01X0001940Y0013919D01*
G01X0001942Y0013924D01*
G01X0001948Y0013923D01*
G01X0001948Y0013923D01*
G37*
G01X0001948Y0013923D02*
G01X0001959Y0013918D01*
G01X0001959Y0013918D02*
G01X0001974Y0013910D01*
G01X0001974Y0013910D02*
G01X0001991Y0013900D01*
G01X0001991Y0013900D02*
G01X0002008Y0013890D01*
G01X0002008Y0013890D02*
G01X0002010Y0013888D01*
G01X0002010Y0013888D02*
G01X0002058Y0013849D01*
G01X0002058Y0013849D02*
G01X0002100Y0013803D01*
G01X0002100Y0013803D02*
G01X0002135Y0013751D01*
G01X0002135Y0013751D02*
G01X0002163Y0013693D01*
G01X0002163Y0013693D02*
G01X0002176Y0013653D01*
G01X0002176Y0013653D02*
G01X0002178Y0013645D01*
G01X0002178Y0013645D02*
G01X0002180Y0013638D01*
G01X0002180Y0013638D02*
G01X0002181Y0013630D01*
G01X0002181Y0013630D02*
G01X0002183Y0013621D01*
G01X0002183Y0013621D02*
G01X0002184Y0013610D01*
G01X0002184Y0013610D02*
G01X0002185Y0013597D01*
G01X0002185Y0013597D02*
G01X0002185Y0013580D01*
G01X0002185Y0013580D02*
G01X0002186Y0013559D01*
G01X0002186Y0013559D02*
G01X0002187Y0013533D01*
G01X0002187Y0013533D02*
G01X0002187Y0013502D01*
G01X0002187Y0013502D02*
G01X0002187Y0013464D01*
G01X0002187Y0013464D02*
G01X0002188Y0013420D01*
G01X0002188Y0013420D02*
G01X0002188Y0013368D01*
G01X0002188Y0013368D02*
G01X0002188Y0013308D01*
G01X0002188Y0013308D02*
G01X0002189Y0013239D01*
G01X0002189Y0013239D02*
G01X0002189Y0013208D01*
G01X0002189Y0013208D02*
G01X0002189Y0013124D01*
G01X0002189Y0013124D02*
G01X0002189Y0013051D01*
G01X0002189Y0013051D02*
G01X0002190Y0012986D01*
G01X0002190Y0012986D02*
G01X0002189Y0012928D01*
G01X0002189Y0012928D02*
G01X0002189Y0012879D01*
G01X0002189Y0012879D02*
G01X0002188Y0012835D01*
G01X0002188Y0012835D02*
G01X0002187Y0012798D01*
G01X0002187Y0012798D02*
G01X0002185Y0012766D01*
G01X0002185Y0012766D02*
G01X0002183Y0012738D01*
G01X0002183Y0012738D02*
G01X0002181Y0012715D01*
G01X0002181Y0012715D02*
G01X0002177Y0012694D01*
G01X0002177Y0012694D02*
G01X0002173Y0012676D01*
G01X0002173Y0012676D02*
G01X0002169Y0012660D01*
G01X0002169Y0012660D02*
G01X0002164Y0012645D01*
G01X0002164Y0012645D02*
G01X0002158Y0012631D01*
G01X0002158Y0012631D02*
G01X0002151Y0012616D01*
G01X0002151Y0012616D02*
G01X0002144Y0012603D01*
G01X0002144Y0012603D02*
G01X0002120Y0012561D01*
G01X0002120Y0012561D02*
G01X0002090Y0012521D01*
G01X0002090Y0012521D02*
G01X0002057Y0012486D01*
G01X0002057Y0012486D02*
G01X0002024Y0012458D01*
G01X0002024Y0012458D02*
G01X0002014Y0012451D01*
G01X0002014Y0012451D02*
G01X0001991Y0012437D01*
G01X0001991Y0012437D02*
G01X0002021Y0012415D01*
G01X0002021Y0012415D02*
G01X0002069Y0012374D01*
G01X0002069Y0012374D02*
G01X0002109Y0012327D01*
G01X0002109Y0012327D02*
G01X0002142Y0012274D01*
G01X0002142Y0012274D02*
G01X0002166Y0012216D01*
G01X0002166Y0012216D02*
G01X0002181Y0012154D01*
G01X0002181Y0012154D02*
G01X0002185Y0012124D01*
G01X0002185Y0012124D02*
G01X0002186Y0012107D01*
G01X0002186Y0012107D02*
G01X0002187Y0012081D01*
G01X0002187Y0012081D02*
G01X0002188Y0012046D01*
G01X0002188Y0012046D02*
G01X0002189Y0012001D01*
G01X0002189Y0012001D02*
G01X0002189Y0011947D01*
G01X0002189Y0011947D02*
G01X0002189Y0011885D01*
G01X0002189Y0011885D02*
G01X0002189Y0011814D01*
G01X0002189Y0011814D02*
G01X0002189Y0011735D01*
G01X0002189Y0011735D02*
G01X0002189Y0011665D01*
G01X0002189Y0011665D02*
G01X0002188Y0011591D01*
G01X0002188Y0011591D02*
G01X0002188Y0011527D01*
G01X0002188Y0011527D02*
G01X0002188Y0011472D01*
G01X0002188Y0011472D02*
G01X0002188Y0011424D01*
G01X0002188Y0011424D02*
G01X0002187Y0011384D01*
G01X0002187Y0011384D02*
G01X0002187Y0011350D01*
G01X0002187Y0011350D02*
G01X0002186Y0011322D01*
G01X0002186Y0011322D02*
G01X0002186Y0011299D01*
G01X0002186Y0011299D02*
G01X0002185Y0011280D01*
G01X0002185Y0011280D02*
G01X0002184Y0011265D01*
G01X0002184Y0011265D02*
G01X0002183Y0011253D01*
G01X0002183Y0011253D02*
G01X0002182Y0011243D01*
G01X0002182Y0011243D02*
G01X0002180Y0011235D01*
G01X0002180Y0011235D02*
G01X0002179Y0011228D01*
G01X0002179Y0011228D02*
G01X0002177Y0011221D01*
G01X0002177Y0011221D02*
G01X0002177Y0011220D01*
G01X0002177Y0011220D02*
G01X0002155Y0011158D01*
G01X0002155Y0011158D02*
G01X0002125Y0011102D01*
G01X0002125Y0011102D02*
G01X0002088Y0011053D01*
G01X0002088Y0011053D02*
G01X0002045Y0011010D01*
G01X0002045Y0011010D02*
G01X0002013Y0010986D01*
G01X0002013Y0010986D02*
G01X0001997Y0010975D01*
G01X0001997Y0010975D02*
G01X0001985Y0010965D01*
G01X0001985Y0010965D02*
G01X0001978Y0010959D01*
G01X0001978Y0010959D02*
G01X0001978Y0010958D01*
G01X0001978Y0010958D02*
G01X0001981Y0010953D01*
G01X0001981Y0010953D02*
G01X0001992Y0010944D01*
G01X0001992Y0010944D02*
G01X0002007Y0010933D01*
G01X0002007Y0010933D02*
G01X0002013Y0010929D01*
G01X0002013Y0010929D02*
G01X0002060Y0010892D01*
G01X0002060Y0010892D02*
G01X0002101Y0010847D01*
G01X0002101Y0010847D02*
G01X0002134Y0010797D01*
G01X0002134Y0010797D02*
G01X0002160Y0010742D01*
G01X0002160Y0010742D02*
G01X0002178Y0010684D01*
G01X0002178Y0010684D02*
G01X0002185Y0010640D01*
G01X0002185Y0010640D02*
G01X0002186Y0010626D01*
G01X0002186Y0010626D02*
G01X0002187Y0010604D01*
G01X0002187Y0010604D02*
G01X0002187Y0010573D01*
G01X0002187Y0010573D02*
G01X0002188Y0010535D01*
G01X0002188Y0010535D02*
G01X0002188Y0010490D01*
G01X0002188Y0010490D02*
G01X0002189Y0010439D01*
G01X0002189Y0010439D02*
G01X0002189Y0010383D01*
G01X0002189Y0010383D02*
G01X0002190Y0010323D01*
G01X0002190Y0010323D02*
G01X0002190Y0010259D01*
G01X0002190Y0010259D02*
G01X0002190Y0010213D01*
G01X0002190Y0010213D02*
G01X0002190Y0010147D01*
G01X0002190Y0010147D02*
G01X0002190Y0010084D01*
G01X0002190Y0010084D02*
G01X0002189Y0010025D01*
G01X0002189Y0010025D02*
G01X0002189Y0009970D01*
G01X0002189Y0009970D02*
G01X0002188Y0009921D01*
G01X0002188Y0009921D02*
G01X0002188Y0009878D01*
G01X0002188Y0009878D02*
G01X0002187Y0009842D01*
G01X0002187Y0009842D02*
G01X0002186Y0009814D01*
G01X0002186Y0009814D02*
G01X0002185Y0009794D01*
G01X0002185Y0009794D02*
G01X0002185Y0009785D01*
G01X0002185Y0009785D02*
G01X0002174Y0009725D01*
G01X0002174Y0009725D02*
G01X0002154Y0009667D01*
G01X0002154Y0009667D02*
G01X0002126Y0009614D01*
G01X0002126Y0009614D02*
G01X0002090Y0009565D01*
G01X0002090Y0009565D02*
G01X0002048Y0009523D01*
G01X0002048Y0009523D02*
G01X0002013Y0009496D01*
G01X0002013Y0009496D02*
G01X0001997Y0009485D01*
G01X0001997Y0009485D02*
G01X0001984Y0009476D01*
G01X0001984Y0009476D02*
G01X0001976Y0009470D01*
G01X0001976Y0009470D02*
G01X0001975Y0009469D01*
G01X0001975Y0009469D02*
G01X0001978Y0009465D01*
G01X0001978Y0009465D02*
G01X0001987Y0009457D01*
G01X0001987Y0009457D02*
G01X0002002Y0009447D01*
G01X0002002Y0009447D02*
G01X0002011Y0009440D01*
G01X0002011Y0009440D02*
G01X0002059Y0009402D01*
G01X0002059Y0009402D02*
G01X0002100Y0009357D01*
G01X0002100Y0009357D02*
G01X0002135Y0009307D01*
G01X0002135Y0009307D02*
G01X0002161Y0009251D01*
G01X0002161Y0009251D02*
G01X0002178Y0009192D01*
G01X0002178Y0009192D02*
G01X0002185Y0009150D01*
G01X0002185Y0009150D02*
G01X0002186Y0009136D01*
G01X0002186Y0009136D02*
G01X0002187Y0009112D01*
G01X0002187Y0009112D02*
G01X0002187Y0009081D01*
G01X0002187Y0009081D02*
G01X0002188Y0009043D01*
G01X0002188Y0009043D02*
G01X0002189Y0008999D01*
G01X0002189Y0008999D02*
G01X0002189Y0008950D01*
G01X0002189Y0008950D02*
G01X0002189Y0008897D01*
G01X0002189Y0008897D02*
G01X0002190Y0008841D01*
G01X0002190Y0008841D02*
G01X0002190Y0008783D01*
G01X0002190Y0008783D02*
G01X0002190Y0008724D01*
G01X0002190Y0008724D02*
G01X0002190Y0008665D01*
G01X0002190Y0008665D02*
G01X0002190Y0008607D01*
G01X0002190Y0008607D02*
G01X0002189Y0008550D01*
G01X0002189Y0008550D02*
G01X0002189Y0008497D01*
G01X0002189Y0008497D02*
G01X0002189Y0008448D01*
G01X0002189Y0008448D02*
G01X0002188Y0008404D01*
G01X0002188Y0008404D02*
G01X0002187Y0008365D01*
G01X0002187Y0008365D02*
G01X0002187Y0008334D01*
G01X0002187Y0008334D02*
G01X0002186Y0008311D01*
G01X0002186Y0008311D02*
G01X0002185Y0008296D01*
G01X0002185Y0008296D02*
G01X0002185Y0008296D01*
G01X0002185Y0008296D02*
G01X0002173Y0008233D01*
G01X0002173Y0008233D02*
G01X0002153Y0008175D01*
G01X0002153Y0008175D02*
G01X0002124Y0008120D01*
G01X0002124Y0008120D02*
G01X0002086Y0008071D01*
G01X0002086Y0008071D02*
G01X0002040Y0008026D01*
G01X0002040Y0008026D02*
G01X0001986Y0007987D01*
G01X0001986Y0007987D02*
G01X0001977Y0007982D01*
G01X0001977Y0007982D02*
G01X0001974Y0007979D01*
G01X0001974Y0007979D02*
G01X0001976Y0007975D01*
G01X0001976Y0007975D02*
G01X0001984Y0007968D01*
G01X0001984Y0007968D02*
G01X0001999Y0007959D01*
G01X0001999Y0007959D02*
G01X0002048Y0007922D01*
G01X0002048Y0007922D02*
G01X0002091Y0007879D01*
G01X0002091Y0007879D02*
G01X0002128Y0007828D01*
G01X0002128Y0007828D02*
G01X0002157Y0007772D01*
G01X0002157Y0007772D02*
G01X0002176Y0007718D01*
G01X0002176Y0007718D02*
G01X0002178Y0007710D01*
G01X0002178Y0007710D02*
G01X0002180Y0007703D01*
G01X0002180Y0007703D02*
G01X0002181Y0007696D01*
G01X0002181Y0007696D02*
G01X0002182Y0007687D01*
G01X0002182Y0007687D02*
G01X0002184Y0007676D01*
G01X0002184Y0007676D02*
G01X0002184Y0007663D01*
G01X0002184Y0007663D02*
G01X0002185Y0007647D01*
G01X0002185Y0007647D02*
G01X0002186Y0007626D01*
G01X0002186Y0007626D02*
G01X0002187Y0007601D01*
G01X0002187Y0007601D02*
G01X0002187Y0007571D01*
G01X0002187Y0007571D02*
G01X0002187Y0007534D01*
G01X0002187Y0007534D02*
G01X0002188Y0007491D01*
G01X0002188Y0007491D02*
G01X0002188Y0007440D01*
G01X0002188Y0007440D02*
G01X0002188Y0007381D01*
G01X0002188Y0007381D02*
G01X0002189Y0007313D01*
G01X0002189Y0007313D02*
G01X0002189Y0007270D01*
G01X0002189Y0007270D02*
G01X0002189Y0007187D01*
G01X0002189Y0007187D02*
G01X0002189Y0007110D01*
G01X0002189Y0007110D02*
G01X0002189Y0007042D01*
G01X0002189Y0007042D02*
G01X0002189Y0006981D01*
G01X0002189Y0006981D02*
G01X0002189Y0006929D01*
G01X0002189Y0006929D02*
G01X0002188Y0006886D01*
G01X0002188Y0006886D02*
G01X0002187Y0006851D01*
G01X0002187Y0006851D02*
G01X0002186Y0006826D01*
G01X0002186Y0006826D02*
G01X0002185Y0006812D01*
G01X0002185Y0006812D02*
G01X0002175Y0006748D01*
G01X0002175Y0006748D02*
G01X0002156Y0006690D01*
G01X0002156Y0006690D02*
G01X0002128Y0006637D01*
G01X0002128Y0006637D02*
G01X0002092Y0006588D01*
G01X0002092Y0006588D02*
G01X0002073Y0006567D01*
G01X0002073Y0006567D02*
G01X0002053Y0006548D01*
G01X0002053Y0006548D02*
G01X0002031Y0006529D01*
G01X0002031Y0006529D02*
G01X0002011Y0006514D01*
G01X0002011Y0006514D02*
G01X0002001Y0006506D01*
G01X0002001Y0006506D02*
G01X0001970Y0006487D01*
G01X0001970Y0006487D02*
G01X0002000Y0006468D01*
G01X0002000Y0006468D02*
G01X0002049Y0006432D01*
G01X0002049Y0006432D02*
G01X0002091Y0006389D01*
G01X0002091Y0006389D02*
G01X0002127Y0006338D01*
G01X0002127Y0006338D02*
G01X0002156Y0006282D01*
G01X0002156Y0006282D02*
G01X0002177Y0006223D01*
G01X0002177Y0006223D02*
G01X0002178Y0006215D01*
G01X0002178Y0006215D02*
G01X0002180Y0006208D01*
G01X0002180Y0006208D02*
G01X0002182Y0006201D01*
G01X0002182Y0006201D02*
G01X0002183Y0006193D01*
G01X0002183Y0006193D02*
G01X0002184Y0006182D01*
G01X0002184Y0006182D02*
G01X0002185Y0006169D01*
G01X0002185Y0006169D02*
G01X0002185Y0006153D01*
G01X0002185Y0006153D02*
G01X0002186Y0006133D01*
G01X0002186Y0006133D02*
G01X0002187Y0006108D01*
G01X0002187Y0006108D02*
G01X0002187Y0006079D01*
G01X0002187Y0006079D02*
G01X0002187Y0006043D01*
G01X0002187Y0006043D02*
G01X0002187Y0006001D01*
G01X0002187Y0006001D02*
G01X0002187Y0005951D01*
G01X0002187Y0005951D02*
G01X0002187Y0005894D01*
G01X0002187Y0005894D02*
G01X0002187Y0005828D01*
G01X0002187Y0005828D02*
G01X0002187Y0005753D01*
G01X0002187Y0005753D02*
G01X0002188Y0005745D01*
G01X0002188Y0005745D02*
G01X0002188Y0005667D01*
G01X0002188Y0005667D02*
G01X0002187Y0005598D01*
G01X0002187Y0005598D02*
G01X0002187Y0005538D01*
G01X0002187Y0005538D02*
G01X0002187Y0005485D01*
G01X0002187Y0005485D02*
G01X0002187Y0005440D01*
G01X0002187Y0005440D02*
G01X0002186Y0005401D01*
G01X0002186Y0005401D02*
G01X0002186Y0005369D01*
G01X0002186Y0005369D02*
G01X0002185Y0005341D01*
G01X0002185Y0005341D02*
G01X0002184Y0005318D01*
G01X0002184Y0005318D02*
G01X0002182Y0005299D01*
G01X0002182Y0005299D02*
G01X0002180Y0005282D01*
G01X0002180Y0005282D02*
G01X0002178Y0005268D01*
G01X0002178Y0005268D02*
G01X0002175Y0005256D01*
G01X0002175Y0005256D02*
G01X0002172Y0005245D01*
G01X0002172Y0005245D02*
G01X0002169Y0005234D01*
G01X0002169Y0005234D02*
G01X0002165Y0005223D01*
G01X0002165Y0005223D02*
G01X0002160Y0005211D01*
G01X0002160Y0005211D02*
G01X0002159Y0005209D01*
G01X0002159Y0005209D02*
G01X0002134Y0005157D01*
G01X0002134Y0005157D02*
G01X0002100Y0005107D01*
G01X0002100Y0005107D02*
G01X0002060Y0005063D01*
G01X0002060Y0005063D02*
G01X0002014Y0005025D01*
G01X0002014Y0005025D02*
G01X0002006Y0005020D01*
G01X0002006Y0005020D02*
G01X0001970Y0004996D01*
G01X0001970Y0004996D02*
G01X0001999Y0004979D01*
G01X0001999Y0004979D02*
G01X0002036Y0004951D01*
G01X0002036Y0004951D02*
G01X0002073Y0004917D01*
G01X0002073Y0004917D02*
G01X0002106Y0004879D01*
G01X0002106Y0004879D02*
G01X0002134Y0004839D01*
G01X0002134Y0004839D02*
G01X0002153Y0004803D01*
G01X0002153Y0004803D02*
G01X0002159Y0004787D01*
G01X0002159Y0004787D02*
G01X0002165Y0004773D01*
G01X0002165Y0004773D02*
G01X0002169Y0004758D01*
G01X0002169Y0004758D02*
G01X0002174Y0004743D01*
G01X0002174Y0004743D02*
G01X0002177Y0004726D01*
G01X0002177Y0004726D02*
G01X0002180Y0004707D01*
G01X0002180Y0004707D02*
G01X0002183Y0004685D01*
G01X0002183Y0004685D02*
G01X0002185Y0004660D01*
G01X0002185Y0004660D02*
G01X0002187Y0004630D01*
G01X0002187Y0004630D02*
G01X0002188Y0004596D01*
G01X0002188Y0004596D02*
G01X0002189Y0004556D01*
G01X0002189Y0004556D02*
G01X0002189Y0004510D01*
G01X0002189Y0004510D02*
G01X0002189Y0004457D01*
G01X0002189Y0004457D02*
G01X0002190Y0004396D01*
G01X0002190Y0004396D02*
G01X0002189Y0004327D01*
G01X0002189Y0004327D02*
G01X0002189Y0004249D01*
G01X0002189Y0004249D02*
G01X0002189Y0004213D01*
G01X0002189Y0004213D02*
G01X0002189Y0004139D01*
G01X0002189Y0004139D02*
G01X0002188Y0004075D01*
G01X0002188Y0004075D02*
G01X0002188Y0004020D01*
G01X0002188Y0004020D02*
G01X0002188Y0003973D01*
G01X0002188Y0003973D02*
G01X0002187Y0003933D01*
G01X0002187Y0003933D02*
G01X0002187Y0003899D01*
G01X0002187Y0003899D02*
G01X0002186Y0003871D01*
G01X0002186Y0003871D02*
G01X0002186Y0003848D01*
G01X0002186Y0003848D02*
G01X0002185Y0003829D01*
G01X0002185Y0003829D02*
G01X0002184Y0003815D01*
G01X0002184Y0003815D02*
G01X0002183Y0003803D01*
G01X0002183Y0003803D02*
G01X0002182Y0003793D01*
G01X0002182Y0003793D02*
G01X0002180Y0003785D01*
G01X0002180Y0003785D02*
G01X0002179Y0003778D01*
G01X0002179Y0003778D02*
G01X0002177Y0003771D01*
G01X0002177Y0003771D02*
G01X0002176Y0003770D01*
G01X0002176Y0003770D02*
G01X0002154Y0003707D01*
G01X0002154Y0003707D02*
G01X0002124Y0003650D01*
G01X0002124Y0003650D02*
G01X0002086Y0003600D01*
G01X0002086Y0003600D02*
G01X0002041Y0003556D01*
G01X0002041Y0003556D02*
G01X0002004Y0003528D01*
G01X0002004Y0003528D02*
G01X0001970Y0003506D01*
G01X0001970Y0003506D02*
G01X0002001Y0003487D01*
G01X0002001Y0003487D02*
G01X0002038Y0003460D01*
G01X0002038Y0003460D02*
G01X0002074Y0003426D01*
G01X0002074Y0003426D02*
G01X0002107Y0003387D01*
G01X0002107Y0003387D02*
G01X0002135Y0003346D01*
G01X0002135Y0003346D02*
G01X0002155Y0003305D01*
G01X0002155Y0003305D02*
G01X0002155Y0003304D01*
G01X0002155Y0003304D02*
G01X0002161Y0003289D01*
G01X0002161Y0003289D02*
G01X0002166Y0003275D01*
G01X0002166Y0003275D02*
G01X0002171Y0003261D01*
G01X0002171Y0003261D02*
G01X0002175Y0003246D01*
G01X0002175Y0003246D02*
G01X0002178Y0003230D01*
G01X0002178Y0003230D02*
G01X0002181Y0003211D01*
G01X0002181Y0003211D02*
G01X0002184Y0003191D01*
G01X0002184Y0003191D02*
G01X0002185Y0003166D01*
G01X0002185Y0003166D02*
G01X0002187Y0003138D01*
G01X0002187Y0003138D02*
G01X0002188Y0003105D01*
G01X0002188Y0003105D02*
G01X0002189Y0003067D01*
G01X0002189Y0003067D02*
G01X0002189Y0003022D01*
G01X0002189Y0003022D02*
G01X0002190Y0002971D01*
G01X0002190Y0002971D02*
G01X0002190Y0002912D01*
G01X0002190Y0002912D02*
G01X0002189Y0002844D01*
G01X0002189Y0002844D02*
G01X0002189Y0002768D01*
G01X0002189Y0002768D02*
G01X0002189Y0002723D01*
G01X0002189Y0002723D02*
G01X0002189Y0002649D01*
G01X0002189Y0002649D02*
G01X0002188Y0002585D01*
G01X0002188Y0002585D02*
G01X0002188Y0002530D01*
G01X0002188Y0002530D02*
G01X0002188Y0002483D01*
G01X0002188Y0002483D02*
G01X0002187Y0002443D01*
G01X0002187Y0002443D02*
G01X0002187Y0002409D01*
G01X0002187Y0002409D02*
G01X0002186Y0002381D01*
G01X0002186Y0002381D02*
G01X0002186Y0002358D01*
G01X0002186Y0002358D02*
G01X0002185Y0002339D01*
G01X0002185Y0002339D02*
G01X0002184Y0002325D01*
G01X0002184Y0002325D02*
G01X0002183Y0002313D01*
G01X0002183Y0002313D02*
G01X0002182Y0002303D01*
G01X0002182Y0002303D02*
G01X0002180Y0002295D01*
G01X0002180Y0002295D02*
G01X0002179Y0002288D01*
G01X0002179Y0002288D02*
G01X0002177Y0002281D01*
G01X0002177Y0002281D02*
G01X0002176Y0002280D01*
G01X0002176Y0002280D02*
G01X0002155Y0002219D01*
G01X0002155Y0002219D02*
G01X0002127Y0002165D01*
G01X0002127Y0002165D02*
G01X0002092Y0002117D01*
G01X0002092Y0002117D02*
G01X0002056Y0002079D01*
G01X0002056Y0002079D02*
G01X0002037Y0002063D01*
G01X0002037Y0002063D02*
G01X0002016Y0002047D01*
G01X0002016Y0002047D02*
G01X0001995Y0002033D01*
G01X0001995Y0002033D02*
G01X0001976Y0002021D01*
G01X0001976Y0002021D02*
G01X0001960Y0002013D01*
G01X0001960Y0002013D02*
G01X0001951Y0002010D01*
G01X0001951Y0002010D02*
G01X0001946Y0002014D01*
G01X0001946Y0002014D02*
G01X0001938Y0002025D01*
G01X0001938Y0002025D02*
G01X0001932Y0002039D01*
G01X0001932Y0002039D02*
G01X0001925Y0002054D01*
G01X0001925Y0002054D02*
G01X0001919Y0002066D01*
G01X0001919Y0002066D02*
G01X0001917Y0002071D01*
G01X0001917Y0002071D02*
G01X0001920Y0002074D01*
G01X0001920Y0002074D02*
G01X0001930Y0002082D01*
G01X0001930Y0002082D02*
G01X0001945Y0002091D01*
G01X0001945Y0002091D02*
G01X0001949Y0002093D01*
G01X0001949Y0002093D02*
G01X0001991Y0002123D01*
G01X0001991Y0002123D02*
G01X0002030Y0002161D01*
G01X0002030Y0002161D02*
G01X0002062Y0002205D01*
G01X0002062Y0002205D02*
G01X0002087Y0002253D01*
G01X0002087Y0002253D02*
G01X0002093Y0002267D01*
G01X0002093Y0002267D02*
G01X0002097Y0002278D01*
G01X0002097Y0002278D02*
G01X0002100Y0002290D01*
G01X0002100Y0002290D02*
G01X0002103Y0002302D01*
G01X0002103Y0002302D02*
G01X0002106Y0002315D01*
G01X0002106Y0002315D02*
G01X0002108Y0002330D01*
G01X0002108Y0002330D02*
G01X0002110Y0002349D01*
G01X0002110Y0002349D02*
G01X0002111Y0002370D01*
G01X0002111Y0002370D02*
G01X0002112Y0002396D01*
G01X0002112Y0002396D02*
G01X0002113Y0002427D01*
G01X0002113Y0002427D02*
G01X0002114Y0002463D01*
G01X0002114Y0002463D02*
G01X0002114Y0002506D01*
G01X0002114Y0002506D02*
G01X0002114Y0002555D01*
G01X0002114Y0002555D02*
G01X0002114Y0002612D01*
G01X0002114Y0002612D02*
G01X0002114Y0002677D01*
G01X0002114Y0002677D02*
G01X0002114Y0002751D01*
G01X0002114Y0002751D02*
G01X0002114Y0002790D01*
G01X0002114Y0002790D02*
G01X0002113Y0002865D01*
G01X0002113Y0002865D02*
G01X0002113Y0002931D01*
G01X0002113Y0002931D02*
G01X0002113Y0002989D01*
G01X0002113Y0002989D02*
G01X0002112Y0003039D01*
G01X0002112Y0003039D02*
G01X0002112Y0003081D01*
G01X0002112Y0003081D02*
G01X0002111Y0003117D01*
G01X0002111Y0003117D02*
G01X0002110Y0003148D01*
G01X0002110Y0003148D02*
G01X0002109Y0003173D01*
G01X0002109Y0003173D02*
G01X0002107Y0003194D01*
G01X0002107Y0003194D02*
G01X0002105Y0003212D01*
G01X0002105Y0003212D02*
G01X0002103Y0003226D01*
G01X0002103Y0003226D02*
G01X0002100Y0003239D01*
G01X0002100Y0003239D02*
G01X0002097Y0003250D01*
G01X0002097Y0003250D02*
G01X0002092Y0003261D01*
G01X0002092Y0003261D02*
G01X0002088Y0003271D01*
G01X0002088Y0003271D02*
G01X0002082Y0003283D01*
G01X0002082Y0003283D02*
G01X0002076Y0003295D01*
G01X0002076Y0003295D02*
G01X0002059Y0003324D01*
G01X0002059Y0003324D02*
G01X0002035Y0003354D01*
G01X0002035Y0003354D02*
G01X0002007Y0003384D01*
G01X0002007Y0003384D02*
G01X0001978Y0003410D01*
G01X0001978Y0003410D02*
G01X0001949Y0003430D01*
G01X0001949Y0003430D02*
G01X0001941Y0003434D01*
G01X0001941Y0003434D02*
G01X0001926Y0003443D01*
G01X0001926Y0003443D02*
G01X0001915Y0003449D01*
G01X0001915Y0003449D02*
G01X0001910Y0003453D01*
G01X0001910Y0003453D02*
G01X0001910Y0003453D01*
G01X0001910Y0003453D02*
G01X0001912Y0003458D01*
G01X0001912Y0003458D02*
G01X0001916Y0003470D01*
G01X0001916Y0003470D02*
G01X0001923Y0003486D01*
G01X0001923Y0003486D02*
G01X0001923Y0003487D01*
G01X0001923Y0003487D02*
G01X0001936Y0003519D01*
G01X0001936Y0003519D02*
G01X0001926Y0003542D01*
G01X0001926Y0003542D02*
G01X0001916Y0003564D01*
G01X0001916Y0003564D02*
G01X0001949Y0003583D01*
G01X0001949Y0003583D02*
G01X0001991Y0003613D01*
G01X0001991Y0003613D02*
G01X0002030Y0003651D01*
G01X0002030Y0003651D02*
G01X0002062Y0003694D01*
G01X0002062Y0003694D02*
G01X0002087Y0003742D01*
G01X0002087Y0003742D02*
G01X0002093Y0003757D01*
G01X0002093Y0003757D02*
G01X0002097Y0003768D01*
G01X0002097Y0003768D02*
G01X0002100Y0003780D01*
G01X0002100Y0003780D02*
G01X0002103Y0003792D01*
G01X0002103Y0003792D02*
G01X0002106Y0003805D01*
G01X0002106Y0003805D02*
G01X0002108Y0003820D01*
G01X0002108Y0003820D02*
G01X0002110Y0003839D01*
G01X0002110Y0003839D02*
G01X0002111Y0003860D01*
G01X0002111Y0003860D02*
G01X0002112Y0003886D01*
G01X0002112Y0003886D02*
G01X0002113Y0003917D01*
G01X0002113Y0003917D02*
G01X0002114Y0003953D01*
G01X0002114Y0003953D02*
G01X0002114Y0003996D01*
G01X0002114Y0003996D02*
G01X0002114Y0004045D01*
G01X0002114Y0004045D02*
G01X0002114Y0004102D01*
G01X0002114Y0004102D02*
G01X0002114Y0004167D01*
G01X0002114Y0004167D02*
G01X0002114Y0004241D01*
G01X0002114Y0004241D02*
G01X0002114Y0004280D01*
G01X0002114Y0004280D02*
G01X0002113Y0004355D01*
G01X0002113Y0004355D02*
G01X0002113Y0004421D01*
G01X0002113Y0004421D02*
G01X0002113Y0004479D01*
G01X0002113Y0004479D02*
G01X0002112Y0004529D01*
G01X0002112Y0004529D02*
G01X0002112Y0004571D01*
G01X0002112Y0004571D02*
G01X0002111Y0004607D01*
G01X0002111Y0004607D02*
G01X0002110Y0004638D01*
G01X0002110Y0004638D02*
G01X0002109Y0004663D01*
G01X0002109Y0004663D02*
G01X0002107Y0004684D01*
G01X0002107Y0004684D02*
G01X0002105Y0004702D01*
G01X0002105Y0004702D02*
G01X0002103Y0004716D01*
G01X0002103Y0004716D02*
G01X0002100Y0004729D01*
G01X0002100Y0004729D02*
G01X0002097Y0004740D01*
G01X0002097Y0004740D02*
G01X0002092Y0004751D01*
G01X0002092Y0004751D02*
G01X0002088Y0004761D01*
G01X0002088Y0004761D02*
G01X0002082Y0004773D01*
G01X0002082Y0004773D02*
G01X0002076Y0004785D01*
G01X0002076Y0004785D02*
G01X0002059Y0004814D01*
G01X0002059Y0004814D02*
G01X0002035Y0004844D01*
G01X0002035Y0004844D02*
G01X0002007Y0004874D01*
G01X0002007Y0004874D02*
G01X0001978Y0004900D01*
G01X0001978Y0004900D02*
G01X0001949Y0004920D01*
G01X0001949Y0004920D02*
G01X0001941Y0004924D01*
G01X0001941Y0004924D02*
G01X0001926Y0004933D01*
G01X0001926Y0004933D02*
G01X0001915Y0004939D01*
G01X0001915Y0004939D02*
G01X0001910Y0004942D01*
G01X0001910Y0004942D02*
G01X0001910Y0004942D01*
G01X0001910Y0004942D02*
G01X0001912Y0004948D01*
G01X0001912Y0004948D02*
G01X0001917Y0004959D01*
G01X0001917Y0004959D02*
G01X0001923Y0004975D01*
G01X0001923Y0004975D02*
G01X0001937Y0005006D01*
G01X0001937Y0005006D02*
G01X0001926Y0005030D01*
G01X0001926Y0005030D02*
G01X0001916Y0005054D01*
G01X0001916Y0005054D02*
G01X0001949Y0005073D01*
G01X0001949Y0005073D02*
G01X0001991Y0005103D01*
G01X0001991Y0005103D02*
G01X0002029Y0005141D01*
G01X0002029Y0005141D02*
G01X0002062Y0005184D01*
G01X0002062Y0005184D02*
G01X0002087Y0005231D01*
G01X0002087Y0005231D02*
G01X0002093Y0005247D01*
G01X0002093Y0005247D02*
G01X0002097Y0005258D01*
G01X0002097Y0005258D02*
G01X0002100Y0005270D01*
G01X0002100Y0005270D02*
G01X0002103Y0005282D01*
G01X0002103Y0005282D02*
G01X0002106Y0005295D01*
G01X0002106Y0005295D02*
G01X0002108Y0005310D01*
G01X0002108Y0005310D02*
G01X0002110Y0005329D01*
G01X0002110Y0005329D02*
G01X0002111Y0005350D01*
G01X0002111Y0005350D02*
G01X0002112Y0005376D01*
G01X0002112Y0005376D02*
G01X0002113Y0005407D01*
G01X0002113Y0005407D02*
G01X0002114Y0005443D01*
G01X0002114Y0005443D02*
G01X0002114Y0005486D01*
G01X0002114Y0005486D02*
G01X0002114Y0005535D01*
G01X0002114Y0005535D02*
G01X0002114Y0005592D01*
G01X0002114Y0005592D02*
G01X0002114Y0005657D01*
G01X0002114Y0005657D02*
G01X0002114Y0005731D01*
G01X0002114Y0005731D02*
G01X0002114Y0005770D01*
G01X0002114Y0005770D02*
G01X0002113Y0005845D01*
G01X0002113Y0005845D02*
G01X0002113Y0005911D01*
G01X0002113Y0005911D02*
G01X0002113Y0005969D01*
G01X0002113Y0005969D02*
G01X0002112Y0006019D01*
G01X0002112Y0006019D02*
G01X0002112Y0006061D01*
G01X0002112Y0006061D02*
G01X0002111Y0006097D01*
G01X0002111Y0006097D02*
G01X0002110Y0006128D01*
G01X0002110Y0006128D02*
G01X0002109Y0006153D01*
G01X0002109Y0006153D02*
G01X0002107Y0006174D01*
G01X0002107Y0006174D02*
G01X0002105Y0006192D01*
G01X0002105Y0006192D02*
G01X0002103Y0006206D01*
G01X0002103Y0006206D02*
G01X0002100Y0006219D01*
G01X0002100Y0006219D02*
G01X0002097Y0006230D01*
G01X0002097Y0006230D02*
G01X0002092Y0006241D01*
G01X0002092Y0006241D02*
G01X0002088Y0006251D01*
G01X0002088Y0006251D02*
G01X0002082Y0006263D01*
G01X0002082Y0006263D02*
G01X0002076Y0006275D01*
G01X0002076Y0006275D02*
G01X0002059Y0006304D01*
G01X0002059Y0006304D02*
G01X0002035Y0006335D01*
G01X0002035Y0006335D02*
G01X0002007Y0006364D01*
G01X0002007Y0006364D02*
G01X0001977Y0006390D01*
G01X0001977Y0006390D02*
G01X0001948Y0006411D01*
G01X0001948Y0006411D02*
G01X0001941Y0006414D01*
G01X0001941Y0006414D02*
G01X0001925Y0006423D01*
G01X0001925Y0006423D02*
G01X0001915Y0006431D01*
G01X0001915Y0006431D02*
G01X0001912Y0006437D01*
G01X0001912Y0006437D02*
G01X0001912Y0006437D01*
G01X0001912Y0006437D02*
G01X0001915Y0006444D01*
G01X0001915Y0006444D02*
G01X0001921Y0006458D01*
G01X0001921Y0006458D02*
G01X0001925Y0006469D01*
G01X0001925Y0006469D02*
G01X0001936Y0006495D01*
G01X0001936Y0006495D02*
G01X0001926Y0006520D01*
G01X0001926Y0006520D02*
G01X0001916Y0006544D01*
G01X0001916Y0006544D02*
G01X0001950Y0006565D01*
G01X0001950Y0006565D02*
G01X0001996Y0006598D01*
G01X0001996Y0006598D02*
G01X0002036Y0006638D01*
G01X0002036Y0006638D02*
G01X0002068Y0006684D01*
G01X0002068Y0006684D02*
G01X0002091Y0006735D01*
G01X0002091Y0006735D02*
G01X0002107Y0006790D01*
G01X0002107Y0006790D02*
G01X0002110Y0006807D01*
G01X0002110Y0006807D02*
G01X0002111Y0006819D01*
G01X0002111Y0006819D02*
G01X0002111Y0006840D01*
G01X0002111Y0006840D02*
G01X0002112Y0006869D01*
G01X0002112Y0006869D02*
G01X0002113Y0006905D01*
G01X0002113Y0006905D02*
G01X0002113Y0006947D01*
G01X0002113Y0006947D02*
G01X0002114Y0006995D01*
G01X0002114Y0006995D02*
G01X0002114Y0007046D01*
G01X0002114Y0007046D02*
G01X0002115Y0007101D01*
G01X0002115Y0007101D02*
G01X0002115Y0007157D01*
G01X0002115Y0007157D02*
G01X0002115Y0007216D01*
G01X0002115Y0007216D02*
G01X0002115Y0007274D01*
G01X0002115Y0007274D02*
G01X0002115Y0007331D01*
G01X0002115Y0007331D02*
G01X0002115Y0007387D01*
G01X0002115Y0007387D02*
G01X0002114Y0007440D01*
G01X0002114Y0007440D02*
G01X0002114Y0007490D01*
G01X0002114Y0007490D02*
G01X0002113Y0007535D01*
G01X0002113Y0007535D02*
G01X0002113Y0007574D01*
G01X0002113Y0007574D02*
G01X0002112Y0007607D01*
G01X0002112Y0007607D02*
G01X0002111Y0007632D01*
G01X0002111Y0007632D02*
G01X0002110Y0007649D01*
G01X0002110Y0007649D02*
G01X0002110Y0007653D01*
G01X0002110Y0007653D02*
G01X0002098Y0007709D01*
G01X0002098Y0007709D02*
G01X0002077Y0007761D01*
G01X0002077Y0007761D02*
G01X0002049Y0007808D01*
G01X0002049Y0007808D02*
G01X0002013Y0007850D01*
G01X0002013Y0007850D02*
G01X0001971Y0007885D01*
G01X0001971Y0007885D02*
G01X0001954Y0007896D01*
G01X0001954Y0007896D02*
G01X0001938Y0007906D01*
G01X0001938Y0007906D02*
G01X0001924Y0007914D01*
G01X0001924Y0007914D02*
G01X0001917Y0007918D01*
G01X0001917Y0007918D02*
G01X0001917Y0007919D01*
G01X0001917Y0007919D02*
G01X0001914Y0007924D01*
G01X0001914Y0007924D02*
G01X0001916Y0007934D01*
G01X0001916Y0007934D02*
G01X0001923Y0007952D01*
G01X0001923Y0007952D02*
G01X0001924Y0007953D01*
G01X0001924Y0007953D02*
G01X0001937Y0007984D01*
G01X0001937Y0007984D02*
G01X0001926Y0008009D01*
G01X0001926Y0008009D02*
G01X0001916Y0008034D01*
G01X0001916Y0008034D02*
G01X0001950Y0008055D01*
G01X0001950Y0008055D02*
G01X0001994Y0008087D01*
G01X0001994Y0008087D02*
G01X0002033Y0008126D01*
G01X0002033Y0008126D02*
G01X0002066Y0008171D01*
G01X0002066Y0008171D02*
G01X0002090Y0008219D01*
G01X0002090Y0008219D02*
G01X0002093Y0008227D01*
G01X0002093Y0008227D02*
G01X0002097Y0008238D01*
G01X0002097Y0008238D02*
G01X0002100Y0008250D01*
G01X0002100Y0008250D02*
G01X0002103Y0008262D01*
G01X0002103Y0008262D02*
G01X0002106Y0008275D01*
G01X0002106Y0008275D02*
G01X0002108Y0008290D01*
G01X0002108Y0008290D02*
G01X0002110Y0008309D01*
G01X0002110Y0008309D02*
G01X0002111Y0008330D01*
G01X0002111Y0008330D02*
G01X0002112Y0008356D01*
G01X0002112Y0008356D02*
G01X0002113Y0008387D01*
G01X0002113Y0008387D02*
G01X0002114Y0008423D01*
G01X0002114Y0008423D02*
G01X0002114Y0008466D01*
G01X0002114Y0008466D02*
G01X0002114Y0008515D01*
G01X0002114Y0008515D02*
G01X0002114Y0008573D01*
G01X0002114Y0008573D02*
G01X0002114Y0008638D01*
G01X0002114Y0008638D02*
G01X0002114Y0008712D01*
G01X0002114Y0008712D02*
G01X0002114Y0008750D01*
G01X0002114Y0008750D02*
G01X0002114Y0008824D01*
G01X0002114Y0008824D02*
G01X0002113Y0008889D01*
G01X0002113Y0008889D02*
G01X0002113Y0008945D01*
G01X0002113Y0008945D02*
G01X0002112Y0008993D01*
G01X0002112Y0008993D02*
G01X0002112Y0009034D01*
G01X0002112Y0009034D02*
G01X0002112Y0009068D01*
G01X0002112Y0009068D02*
G01X0002111Y0009097D01*
G01X0002111Y0009097D02*
G01X0002110Y0009120D01*
G01X0002110Y0009120D02*
G01X0002110Y0009139D01*
G01X0002110Y0009139D02*
G01X0002109Y0009153D01*
G01X0002109Y0009153D02*
G01X0002108Y0009165D01*
G01X0002108Y0009165D02*
G01X0002106Y0009174D01*
G01X0002106Y0009174D02*
G01X0002105Y0009181D01*
G01X0002105Y0009181D02*
G01X0002104Y0009188D01*
G01X0002104Y0009188D02*
G01X0002084Y0009240D01*
G01X0002084Y0009240D02*
G01X0002056Y0009288D01*
G01X0002056Y0009288D02*
G01X0002022Y0009331D01*
G01X0002022Y0009331D02*
G01X0001983Y0009367D01*
G01X0001983Y0009367D02*
G01X0001939Y0009395D01*
G01X0001939Y0009395D02*
G01X0001939Y0009395D01*
G01X0001939Y0009395D02*
G01X0001910Y0009410D01*
G01X0001910Y0009410D02*
G01X0001923Y0009438D01*
G01X0001923Y0009438D02*
G01X0001930Y0009456D01*
G01X0001930Y0009456D02*
G01X0001934Y0009469D01*
G01X0001934Y0009469D02*
G01X0001934Y0009479D01*
G01X0001934Y0009479D02*
G01X0001930Y0009491D01*
G01X0001930Y0009491D02*
G01X0001925Y0009502D01*
G01X0001925Y0009502D02*
G01X0001916Y0009525D01*
G01X0001916Y0009525D02*
G01X0001942Y0009540D01*
G01X0001942Y0009540D02*
G01X0001989Y0009572D01*
G01X0001989Y0009572D02*
G01X0002029Y0009611D01*
G01X0002029Y0009611D02*
G01X0002063Y0009656D01*
G01X0002063Y0009656D02*
G01X0002078Y0009683D01*
G01X0002078Y0009683D02*
G01X0002084Y0009695D01*
G01X0002084Y0009695D02*
G01X0002089Y0009705D01*
G01X0002089Y0009705D02*
G01X0002093Y0009716D01*
G01X0002093Y0009716D02*
G01X0002097Y0009726D01*
G01X0002097Y0009726D02*
G01X0002101Y0009737D01*
G01X0002101Y0009737D02*
G01X0002104Y0009750D01*
G01X0002104Y0009750D02*
G01X0002106Y0009765D01*
G01X0002106Y0009765D02*
G01X0002108Y0009782D01*
G01X0002108Y0009782D02*
G01X0002109Y0009804D01*
G01X0002109Y0009804D02*
G01X0002111Y0009830D01*
G01X0002111Y0009830D02*
G01X0002111Y0009861D01*
G01X0002111Y0009861D02*
G01X0002112Y0009898D01*
G01X0002112Y0009898D02*
G01X0002113Y0009941D01*
G01X0002113Y0009941D02*
G01X0002113Y0009991D01*
G01X0002113Y0009991D02*
G01X0002113Y0010050D01*
G01X0002113Y0010050D02*
G01X0002114Y0010117D01*
G01X0002114Y0010117D02*
G01X0002114Y0010185D01*
G01X0002114Y0010185D02*
G01X0002114Y0010264D01*
G01X0002114Y0010264D02*
G01X0002114Y0010333D01*
G01X0002114Y0010333D02*
G01X0002114Y0010394D01*
G01X0002114Y0010394D02*
G01X0002114Y0010447D01*
G01X0002114Y0010447D02*
G01X0002114Y0010493D01*
G01X0002114Y0010493D02*
G01X0002114Y0010532D01*
G01X0002114Y0010532D02*
G01X0002113Y0010565D01*
G01X0002113Y0010565D02*
G01X0002112Y0010593D01*
G01X0002112Y0010593D02*
G01X0002110Y0010617D01*
G01X0002110Y0010617D02*
G01X0002109Y0010636D01*
G01X0002109Y0010636D02*
G01X0002107Y0010653D01*
G01X0002107Y0010653D02*
G01X0002104Y0010667D01*
G01X0002104Y0010667D02*
G01X0002102Y0010680D01*
G01X0002102Y0010680D02*
G01X0002098Y0010691D01*
G01X0002098Y0010691D02*
G01X0002095Y0010703D01*
G01X0002095Y0010703D02*
G01X0002093Y0010708D01*
G01X0002093Y0010708D02*
G01X0002070Y0010757D01*
G01X0002070Y0010757D02*
G01X0002039Y0010803D01*
G01X0002039Y0010803D02*
G01X0002000Y0010843D01*
G01X0002000Y0010843D02*
G01X0001957Y0010876D01*
G01X0001957Y0010876D02*
G01X0001950Y0010880D01*
G01X0001950Y0010880D02*
G01X0001934Y0010891D01*
G01X0001934Y0010891D02*
G01X0001921Y0010899D01*
G01X0001921Y0010899D02*
G01X0001915Y0010905D01*
G01X0001915Y0010905D02*
G01X0001915Y0010905D01*
G01X0001915Y0010905D02*
G01X0001917Y0010912D01*
G01X0001917Y0010912D02*
G01X0001922Y0010925D01*
G01X0001922Y0010925D02*
G01X0001927Y0010936D01*
G01X0001927Y0010936D02*
G01X0001933Y0010952D01*
G01X0001933Y0010952D02*
G01X0001936Y0010962D01*
G01X0001936Y0010962D02*
G01X0001935Y0010970D01*
G01X0001935Y0010970D02*
G01X0001930Y0010980D01*
G01X0001930Y0010980D02*
G01X0001930Y0010980D01*
G01X0001930Y0010980D02*
G01X0001921Y0010998D01*
G01X0001921Y0010998D02*
G01X0001918Y0011010D01*
G01X0001918Y0011010D02*
G01X0001920Y0011018D01*
G01X0001920Y0011018D02*
G01X0001927Y0011023D01*
G01X0001927Y0011023D02*
G01X0001935Y0011027D01*
G01X0001935Y0011027D02*
G01X0001965Y0011044D01*
G01X0001965Y0011044D02*
G01X0001996Y0011068D01*
G01X0001996Y0011068D02*
G01X0002025Y0011098D01*
G01X0002025Y0011098D02*
G01X0002052Y0011130D01*
G01X0002052Y0011130D02*
G01X0002073Y0011163D01*
G01X0002073Y0011163D02*
G01X0002077Y0011173D01*
G01X0002077Y0011173D02*
G01X0002083Y0011185D01*
G01X0002083Y0011185D02*
G01X0002089Y0011196D01*
G01X0002089Y0011196D02*
G01X0002093Y0011206D01*
G01X0002093Y0011206D02*
G01X0002097Y0011217D01*
G01X0002097Y0011217D02*
G01X0002101Y0011228D01*
G01X0002101Y0011228D02*
G01X0002103Y0011240D01*
G01X0002103Y0011240D02*
G01X0002106Y0011255D01*
G01X0002106Y0011255D02*
G01X0002108Y0011273D01*
G01X0002108Y0011273D02*
G01X0002109Y0011294D01*
G01X0002109Y0011294D02*
G01X0002110Y0011320D01*
G01X0002110Y0011320D02*
G01X0002111Y0011351D01*
G01X0002111Y0011351D02*
G01X0002112Y0011387D01*
G01X0002112Y0011387D02*
G01X0002112Y0011430D01*
G01X0002112Y0011430D02*
G01X0002113Y0011480D01*
G01X0002113Y0011480D02*
G01X0002113Y0011538D01*
G01X0002113Y0011538D02*
G01X0002113Y0011605D01*
G01X0002113Y0011605D02*
G01X0002114Y0011675D01*
G01X0002114Y0011675D02*
G01X0002114Y0011754D01*
G01X0002114Y0011754D02*
G01X0002114Y0011823D01*
G01X0002114Y0011823D02*
G01X0002114Y0011884D01*
G01X0002114Y0011884D02*
G01X0002114Y0011937D01*
G01X0002114Y0011937D02*
G01X0002114Y0011983D01*
G01X0002114Y0011983D02*
G01X0002114Y0012022D01*
G01X0002114Y0012022D02*
G01X0002113Y0012055D01*
G01X0002113Y0012055D02*
G01X0002112Y0012083D01*
G01X0002112Y0012083D02*
G01X0002110Y0012107D01*
G01X0002110Y0012107D02*
G01X0002109Y0012126D01*
G01X0002109Y0012126D02*
G01X0002107Y0012143D01*
G01X0002107Y0012143D02*
G01X0002104Y0012157D01*
G01X0002104Y0012157D02*
G01X0002102Y0012170D01*
G01X0002102Y0012170D02*
G01X0002098Y0012181D01*
G01X0002098Y0012181D02*
G01X0002095Y0012193D01*
G01X0002095Y0012193D02*
G01X0002093Y0012198D01*
G01X0002093Y0012198D02*
G01X0002070Y0012248D01*
G01X0002070Y0012248D02*
G01X0002038Y0012294D01*
G01X0002038Y0012294D02*
G01X0001999Y0012334D01*
G01X0001999Y0012334D02*
G01X0001954Y0012368D01*
G01X0001954Y0012368D02*
G01X0001950Y0012370D01*
G01X0001950Y0012370D02*
G01X0001934Y0012381D01*
G01X0001934Y0012381D02*
G01X0001921Y0012389D01*
G01X0001921Y0012389D02*
G01X0001915Y0012395D01*
G01X0001915Y0012395D02*
G01X0001915Y0012395D01*
G01X0001915Y0012395D02*
G01X0001917Y0012402D01*
G01X0001917Y0012402D02*
G01X0001922Y0012414D01*
G01X0001922Y0012414D02*
G01X0001923Y0012417D01*
G01X0001923Y0012417D02*
G01X0001928Y0012432D01*
G01X0001928Y0012432D02*
G01X0001927Y0012447D01*
G01X0001927Y0012447D02*
G01X0001922Y0012467D01*
G01X0001922Y0012467D02*
G01X0001917Y0012478D01*
G01X0001917Y0012478D02*
G01X0001920Y0012482D01*
G01X0001920Y0012482D02*
G01X0001930Y0012489D01*
G01X0001930Y0012489D02*
G01X0001944Y0012497D01*
G01X0001944Y0012497D02*
G01X0001970Y0012514D01*
G01X0001970Y0012514D02*
G01X0001997Y0012537D01*
G01X0001997Y0012537D02*
G01X0002025Y0012564D01*
G01X0002025Y0012564D02*
G01X0002049Y0012593D01*
G01X0002049Y0012593D02*
G01X0002069Y0012622D01*
G01X0002069Y0012622D02*
G01X0002076Y0012635D01*
G01X0002076Y0012635D02*
G01X0002082Y0012648D01*
G01X0002082Y0012648D02*
G01X0002088Y0012659D01*
G01X0002088Y0012659D02*
G01X0002093Y0012670D01*
G01X0002093Y0012670D02*
G01X0002097Y0012680D01*
G01X0002097Y0012680D02*
G01X0002100Y0012691D01*
G01X0002100Y0012691D02*
G01X0002103Y0012704D01*
G01X0002103Y0012704D02*
G01X0002105Y0012719D01*
G01X0002105Y0012719D02*
G01X0002107Y0012736D01*
G01X0002107Y0012736D02*
G01X0002109Y0012758D01*
G01X0002109Y0012758D02*
G01X0002110Y0012783D01*
G01X0002110Y0012783D02*
G01X0002111Y0012814D01*
G01X0002111Y0012814D02*
G01X0002112Y0012850D01*
G01X0002112Y0012850D02*
G01X0002112Y0012892D01*
G01X0002112Y0012892D02*
G01X0002113Y0012942D01*
G01X0002113Y0012942D02*
G01X0002113Y0013000D01*
G01X0002113Y0013000D02*
G01X0002113Y0013066D01*
G01X0002113Y0013066D02*
G01X0002114Y0013140D01*
G01X0002114Y0013140D02*
G01X0002114Y0013219D01*
G01X0002114Y0013219D02*
G01X0002114Y0013288D01*
G01X0002114Y0013288D02*
G01X0002114Y0013349D01*
G01X0002114Y0013349D02*
G01X0002114Y0013402D01*
G01X0002114Y0013402D02*
G01X0002114Y0013448D01*
G01X0002114Y0013448D02*
G01X0002114Y0013487D01*
G01X0002114Y0013487D02*
G01X0002113Y0013520D01*
G01X0002113Y0013520D02*
G01X0002112Y0013548D01*
G01X0002112Y0013548D02*
G01X0002110Y0013572D01*
G01X0002110Y0013572D02*
G01X0002109Y0013591D01*
G01X0002109Y0013591D02*
G01X0002107Y0013608D01*
G01X0002107Y0013608D02*
G01X0002104Y0013622D01*
G01X0002104Y0013622D02*
G01X0002102Y0013635D01*
G01X0002102Y0013635D02*
G01X0002098Y0013646D01*
G01X0002098Y0013646D02*
G01X0002095Y0013658D01*
G01X0002095Y0013658D02*
G01X0002093Y0013663D01*
G01X0002093Y0013663D02*
G01X0002070Y0013712D01*
G01X0002070Y0013712D02*
G01X0002040Y0013757D01*
G01X0002040Y0013757D02*
G01X0002003Y0013797D01*
G01X0002003Y0013797D02*
G01X0001961Y0013829D01*
G01X0001961Y0013829D02*
G01X0001949Y0013837D01*
G01X0001949Y0013837D02*
G01X0001933Y0013847D01*
G01X0001933Y0013847D02*
G01X0001921Y0013855D01*
G01X0001921Y0013855D02*
G01X0001915Y0013859D01*
G01X0001915Y0013859D02*
G01X0001915Y0013860D01*
G01X0001915Y0013860D02*
G01X0001917Y0013866D01*
G01X0001917Y0013866D02*
G01X0001922Y0013878D01*
G01X0001922Y0013878D02*
G01X0001928Y0013893D01*
G01X0001928Y0013893D02*
G01X0001934Y0013907D01*
G01X0001934Y0013907D02*
G01X0001940Y0013919D01*
G01X0001940Y0013919D02*
G01X0001942Y0013924D01*
G01X0001942Y0013924D02*
G01X0001948Y0013923D01*
G36*
G01X0005230Y0015914D02*
G01X0005230Y0015913D01*
G01X0005230Y0015907D01*
G01X0005232Y0015892D01*
G01X0005234Y0015869D01*
G01X0005237Y0015837D01*
G01X0005241Y0015798D01*
G01X0005246Y0015753D01*
G01X0005251Y0015702D01*
G01X0005256Y0015646D01*
G01X0005262Y0015586D01*
G01X0005269Y0015522D01*
G01X0005276Y0015455D01*
G01X0005277Y0015437D01*
G01X0005298Y0015231D01*
G01X0005318Y0015034D01*
G01X0005336Y0014847D01*
G01X0005354Y0014669D01*
G01X0005371Y0014500D01*
G01X0005386Y0014339D01*
G01X0005401Y0014186D01*
G01X0005415Y0014041D01*
G01X0005428Y0013904D01*
G01X0005440Y0013773D01*
G01X0005451Y0013650D01*
G01X0005461Y0013532D01*
G01X0005471Y0013422D01*
G01X0005480Y0013317D01*
G01X0005488Y0013217D01*
G01X0005496Y0013123D01*
G01X0005503Y0013034D01*
G01X0005509Y0012950D01*
G01X0005515Y0012869D01*
G01X0005517Y0012830D01*
G01X0005530Y0012642D01*
G01X0005535Y0008185D01*
G01X0005535Y0007968D01*
G01X0005535Y0007753D01*
G01X0005536Y0007538D01*
G01X0005536Y0007325D01*
G01X0005536Y0007113D01*
G01X0005536Y0006903D01*
G01X0005537Y0006696D01*
G01X0005537Y0006490D01*
G01X0005537Y0006287D01*
G01X0005537Y0006088D01*
G01X0005537Y0005891D01*
G01X0005538Y0005698D01*
G01X0005538Y0005509D01*
G01X0005538Y0005323D01*
G01X0005538Y0005143D01*
G01X0005538Y0004966D01*
G01X0005538Y0004795D01*
G01X0005539Y0004629D01*
G01X0005539Y0004468D01*
G01X0005539Y0004314D01*
G01X0005539Y0004165D01*
G01X0005539Y0004022D01*
G01X0005539Y0003887D01*
G01X0005539Y0003758D01*
G01X0005539Y0003636D01*
G01X0005540Y0003522D01*
G01X0005540Y0003415D01*
G01X0005540Y0003317D01*
G01X0005540Y0003227D01*
G01X0005540Y0003145D01*
G01X0005540Y0003072D01*
G01X0005540Y0003009D01*
G01X0005540Y0002955D01*
G01X0005540Y0002911D01*
G01X0005540Y0002095D01*
G01X0005455Y0002095D01*
G01X0005455Y0002996D01*
G01X0005455Y0003046D01*
G01X0005455Y0003104D01*
G01X0005455Y0003173D01*
G01X0005455Y0003250D01*
G01X0005455Y0003337D01*
G01X0005455Y0003432D01*
G01X0005455Y0003535D01*
G01X0005454Y0003646D01*
G01X0005454Y0003765D01*
G01X0005454Y0003891D01*
G01X0005454Y0004024D01*
G01X0005454Y0004164D01*
G01X0005454Y0004310D01*
G01X0005454Y0004463D01*
G01X0005454Y0004621D01*
G01X0005454Y0004785D01*
G01X0005453Y0004955D01*
G01X0005453Y0005129D01*
G01X0005453Y0005308D01*
G01X0005453Y0005492D01*
G01X0005453Y0005680D01*
G01X0005452Y0005871D01*
G01X0005452Y0006066D01*
G01X0005452Y0006265D01*
G01X0005452Y0006466D01*
G01X0005452Y0006670D01*
G01X0005451Y0006877D01*
G01X0005451Y0007085D01*
G01X0005451Y0007295D01*
G01X0005451Y0007507D01*
G01X0005451Y0007720D01*
G01X0005450Y0007934D01*
G01X0005450Y0008149D01*
G01X0005450Y0008268D01*
G01X0005450Y0008519D01*
G01X0005449Y0008760D01*
G01X0005449Y0008992D01*
G01X0005449Y0009214D01*
G01X0005449Y0009427D01*
G01X0005449Y0009632D01*
G01X0005448Y0009827D01*
G01X0005448Y0010014D01*
G01X0005448Y0010192D01*
G01X0005448Y0010362D01*
G01X0005447Y0010525D01*
G01X0005447Y0010679D01*
G01X0005447Y0010826D01*
G01X0005447Y0010966D01*
G01X0005447Y0011098D01*
G01X0005446Y0011223D01*
G01X0005446Y0011342D01*
G01X0005446Y0011454D01*
G01X0005446Y0011560D01*
G01X0005446Y0011659D01*
G01X0005445Y0011753D01*
G01X0005445Y0011841D01*
G01X0005445Y0011923D01*
G01X0005445Y0012000D01*
G01X0005445Y0012072D01*
G01X0005444Y0012138D01*
G01X0005444Y0012200D01*
G01X0005444Y0012258D01*
G01X0005444Y0012311D01*
G01X0005443Y0012360D01*
G01X0005443Y0012405D01*
G01X0005443Y0012447D01*
G01X0005443Y0012485D01*
G01X0005442Y0012519D01*
G01X0005442Y0012550D01*
G01X0005442Y0012579D01*
G01X0005441Y0012605D01*
G01X0005441Y0012628D01*
G01X0005441Y0012649D01*
G01X0005440Y0012667D01*
G01X0005440Y0012684D01*
G01X0005439Y0012699D01*
G01X0005439Y0012713D01*
G01X0005439Y0012725D01*
G01X0005438Y0012737D01*
G01X0005438Y0012747D01*
G01X0005437Y0012756D01*
G01X0005437Y0012766D01*
G01X0005436Y0012774D01*
G01X0005435Y0012783D01*
G01X0005435Y0012788D01*
G01X0005430Y0012861D01*
G01X0005425Y0012936D01*
G01X0005419Y0013010D01*
G01X0005413Y0013086D01*
G01X0005407Y0013165D01*
G01X0005401Y0013246D01*
G01X0005394Y0013330D01*
G01X0005386Y0013418D01*
G01X0005378Y0013510D01*
G01X0005369Y0013608D01*
G01X0005360Y0013711D01*
G01X0005350Y0013821D01*
G01X0005339Y0013938D01*
G01X0005327Y0014063D01*
G01X0005314Y0014196D01*
G01X0005301Y0014338D01*
G01X0005292Y0014425D01*
G01X0005288Y0014467D01*
G01X0005284Y0014515D01*
G01X0005278Y0014569D01*
G01X0005272Y0014629D01*
G01X0005266Y0014693D01*
G01X0005259Y0014762D01*
G01X0005252Y0014833D01*
G01X0005245Y0014907D01*
G01X0005237Y0014984D01*
G01X0005230Y0015061D01*
G01X0005222Y0015138D01*
G01X0005214Y0015216D01*
G01X0005206Y0015292D01*
G01X0005199Y0015367D01*
G01X0005192Y0015440D01*
G01X0005185Y0015510D01*
G01X0005178Y0015575D01*
G01X0005172Y0015637D01*
G01X0005166Y0015693D01*
G01X0005161Y0015743D01*
G01X0005157Y0015787D01*
G01X0005153Y0015824D01*
G01X0005150Y0015853D01*
G01X0005148Y0015873D01*
G01X0005147Y0015883D01*
G01X0005144Y0015909D01*
G01X0005173Y0015912D01*
G01X0005192Y0015915D01*
G01X0005209Y0015917D01*
G01X0005216Y0015918D01*
G01X0005227Y0015919D01*
G01X0005230Y0015914D01*
G01X0005230Y0015914D01*
G37*
G01X0005230Y0015914D02*
G01X0005230Y0015913D01*
G01X0005230Y0015913D02*
G01X0005230Y0015907D01*
G01X0005230Y0015907D02*
G01X0005232Y0015892D01*
G01X0005232Y0015892D02*
G01X0005234Y0015869D01*
G01X0005234Y0015869D02*
G01X0005237Y0015837D01*
G01X0005237Y0015837D02*
G01X0005241Y0015798D01*
G01X0005241Y0015798D02*
G01X0005246Y0015753D01*
G01X0005246Y0015753D02*
G01X0005251Y0015702D01*
G01X0005251Y0015702D02*
G01X0005256Y0015646D01*
G01X0005256Y0015646D02*
G01X0005262Y0015586D01*
G01X0005262Y0015586D02*
G01X0005269Y0015522D01*
G01X0005269Y0015522D02*
G01X0005276Y0015455D01*
G01X0005276Y0015455D02*
G01X0005277Y0015437D01*
G01X0005277Y0015437D02*
G01X0005298Y0015231D01*
G01X0005298Y0015231D02*
G01X0005318Y0015034D01*
G01X0005318Y0015034D02*
G01X0005336Y0014847D01*
G01X0005336Y0014847D02*
G01X0005354Y0014669D01*
G01X0005354Y0014669D02*
G01X0005371Y0014500D01*
G01X0005371Y0014500D02*
G01X0005386Y0014339D01*
G01X0005386Y0014339D02*
G01X0005401Y0014186D01*
G01X0005401Y0014186D02*
G01X0005415Y0014041D01*
G01X0005415Y0014041D02*
G01X0005428Y0013904D01*
G01X0005428Y0013904D02*
G01X0005440Y0013773D01*
G01X0005440Y0013773D02*
G01X0005451Y0013650D01*
G01X0005451Y0013650D02*
G01X0005461Y0013532D01*
G01X0005461Y0013532D02*
G01X0005471Y0013422D01*
G01X0005471Y0013422D02*
G01X0005480Y0013317D01*
G01X0005480Y0013317D02*
G01X0005488Y0013217D01*
G01X0005488Y0013217D02*
G01X0005496Y0013123D01*
G01X0005496Y0013123D02*
G01X0005503Y0013034D01*
G01X0005503Y0013034D02*
G01X0005509Y0012950D01*
G01X0005509Y0012950D02*
G01X0005515Y0012869D01*
G01X0005515Y0012869D02*
G01X0005517Y0012830D01*
G01X0005517Y0012830D02*
G01X0005530Y0012642D01*
G01X0005530Y0012642D02*
G01X0005535Y0008185D01*
G01X0005535Y0008185D02*
G01X0005535Y0007968D01*
G01X0005535Y0007968D02*
G01X0005535Y0007753D01*
G01X0005535Y0007753D02*
G01X0005536Y0007538D01*
G01X0005536Y0007538D02*
G01X0005536Y0007325D01*
G01X0005536Y0007325D02*
G01X0005536Y0007113D01*
G01X0005536Y0007113D02*
G01X0005536Y0006903D01*
G01X0005536Y0006903D02*
G01X0005537Y0006696D01*
G01X0005537Y0006696D02*
G01X0005537Y0006490D01*
G01X0005537Y0006490D02*
G01X0005537Y0006287D01*
G01X0005537Y0006287D02*
G01X0005537Y0006088D01*
G01X0005537Y0006088D02*
G01X0005537Y0005891D01*
G01X0005537Y0005891D02*
G01X0005538Y0005698D01*
G01X0005538Y0005698D02*
G01X0005538Y0005509D01*
G01X0005538Y0005509D02*
G01X0005538Y0005323D01*
G01X0005538Y0005323D02*
G01X0005538Y0005143D01*
G01X0005538Y0005143D02*
G01X0005538Y0004966D01*
G01X0005538Y0004966D02*
G01X0005538Y0004795D01*
G01X0005538Y0004795D02*
G01X0005539Y0004629D01*
G01X0005539Y0004629D02*
G01X0005539Y0004468D01*
G01X0005539Y0004468D02*
G01X0005539Y0004314D01*
G01X0005539Y0004314D02*
G01X0005539Y0004165D01*
G01X0005539Y0004165D02*
G01X0005539Y0004022D01*
G01X0005539Y0004022D02*
G01X0005539Y0003887D01*
G01X0005539Y0003887D02*
G01X0005539Y0003758D01*
G01X0005539Y0003758D02*
G01X0005539Y0003636D01*
G01X0005539Y0003636D02*
G01X0005540Y0003522D01*
G01X0005540Y0003522D02*
G01X0005540Y0003415D01*
G01X0005540Y0003415D02*
G01X0005540Y0003317D01*
G01X0005540Y0003317D02*
G01X0005540Y0003227D01*
G01X0005540Y0003227D02*
G01X0005540Y0003145D01*
G01X0005540Y0003145D02*
G01X0005540Y0003072D01*
G01X0005540Y0003072D02*
G01X0005540Y0003009D01*
G01X0005540Y0003009D02*
G01X0005540Y0002955D01*
G01X0005540Y0002955D02*
G01X0005540Y0002911D01*
G01X0005540Y0002911D02*
G01X0005540Y0002095D01*
G01X0005540Y0002095D02*
G01X0005455Y0002095D01*
G01X0005455Y0002095D02*
G01X0005455Y0002996D01*
G01X0005455Y0002996D02*
G01X0005455Y0003046D01*
G01X0005455Y0003046D02*
G01X0005455Y0003104D01*
G01X0005455Y0003104D02*
G01X0005455Y0003173D01*
G01X0005455Y0003173D02*
G01X0005455Y0003250D01*
G01X0005455Y0003250D02*
G01X0005455Y0003337D01*
G01X0005455Y0003337D02*
G01X0005455Y0003432D01*
G01X0005455Y0003432D02*
G01X0005455Y0003535D01*
G01X0005455Y0003535D02*
G01X0005454Y0003646D01*
G01X0005454Y0003646D02*
G01X0005454Y0003765D01*
G01X0005454Y0003765D02*
G01X0005454Y0003891D01*
G01X0005454Y0003891D02*
G01X0005454Y0004024D01*
G01X0005454Y0004024D02*
G01X0005454Y0004164D01*
G01X0005454Y0004164D02*
G01X0005454Y0004310D01*
G01X0005454Y0004310D02*
G01X0005454Y0004463D01*
G01X0005454Y0004463D02*
G01X0005454Y0004621D01*
G01X0005454Y0004621D02*
G01X0005454Y0004785D01*
G01X0005454Y0004785D02*
G01X0005453Y0004955D01*
G01X0005453Y0004955D02*
G01X0005453Y0005129D01*
G01X0005453Y0005129D02*
G01X0005453Y0005308D01*
G01X0005453Y0005308D02*
G01X0005453Y0005492D01*
G01X0005453Y0005492D02*
G01X0005453Y0005680D01*
G01X0005453Y0005680D02*
G01X0005452Y0005871D01*
G01X0005452Y0005871D02*
G01X0005452Y0006066D01*
G01X0005452Y0006066D02*
G01X0005452Y0006265D01*
G01X0005452Y0006265D02*
G01X0005452Y0006466D01*
G01X0005452Y0006466D02*
G01X0005452Y0006670D01*
G01X0005452Y0006670D02*
G01X0005451Y0006877D01*
G01X0005451Y0006877D02*
G01X0005451Y0007085D01*
G01X0005451Y0007085D02*
G01X0005451Y0007295D01*
G01X0005451Y0007295D02*
G01X0005451Y0007507D01*
G01X0005451Y0007507D02*
G01X0005451Y0007720D01*
G01X0005451Y0007720D02*
G01X0005450Y0007934D01*
G01X0005450Y0007934D02*
G01X0005450Y0008149D01*
G01X0005450Y0008149D02*
G01X0005450Y0008268D01*
G01X0005450Y0008268D02*
G01X0005450Y0008519D01*
G01X0005450Y0008519D02*
G01X0005449Y0008760D01*
G01X0005449Y0008760D02*
G01X0005449Y0008992D01*
G01X0005449Y0008992D02*
G01X0005449Y0009214D01*
G01X0005449Y0009214D02*
G01X0005449Y0009427D01*
G01X0005449Y0009427D02*
G01X0005449Y0009632D01*
G01X0005449Y0009632D02*
G01X0005448Y0009827D01*
G01X0005448Y0009827D02*
G01X0005448Y0010014D01*
G01X0005448Y0010014D02*
G01X0005448Y0010192D01*
G01X0005448Y0010192D02*
G01X0005448Y0010362D01*
G01X0005448Y0010362D02*
G01X0005447Y0010525D01*
G01X0005447Y0010525D02*
G01X0005447Y0010679D01*
G01X0005447Y0010679D02*
G01X0005447Y0010826D01*
G01X0005447Y0010826D02*
G01X0005447Y0010966D01*
G01X0005447Y0010966D02*
G01X0005447Y0011098D01*
G01X0005447Y0011098D02*
G01X0005446Y0011223D01*
G01X0005446Y0011223D02*
G01X0005446Y0011342D01*
G01X0005446Y0011342D02*
G01X0005446Y0011454D01*
G01X0005446Y0011454D02*
G01X0005446Y0011560D01*
G01X0005446Y0011560D02*
G01X0005446Y0011659D01*
G01X0005446Y0011659D02*
G01X0005445Y0011753D01*
G01X0005445Y0011753D02*
G01X0005445Y0011841D01*
G01X0005445Y0011841D02*
G01X0005445Y0011923D01*
G01X0005445Y0011923D02*
G01X0005445Y0012000D01*
G01X0005445Y0012000D02*
G01X0005445Y0012072D01*
G01X0005445Y0012072D02*
G01X0005444Y0012138D01*
G01X0005444Y0012138D02*
G01X0005444Y0012200D01*
G01X0005444Y0012200D02*
G01X0005444Y0012258D01*
G01X0005444Y0012258D02*
G01X0005444Y0012311D01*
G01X0005444Y0012311D02*
G01X0005443Y0012360D01*
G01X0005443Y0012360D02*
G01X0005443Y0012405D01*
G01X0005443Y0012405D02*
G01X0005443Y0012447D01*
G01X0005443Y0012447D02*
G01X0005443Y0012485D01*
G01X0005443Y0012485D02*
G01X0005442Y0012519D01*
G01X0005442Y0012519D02*
G01X0005442Y0012550D01*
G01X0005442Y0012550D02*
G01X0005442Y0012579D01*
G01X0005442Y0012579D02*
G01X0005441Y0012605D01*
G01X0005441Y0012605D02*
G01X0005441Y0012628D01*
G01X0005441Y0012628D02*
G01X0005441Y0012649D01*
G01X0005441Y0012649D02*
G01X0005440Y0012667D01*
G01X0005440Y0012667D02*
G01X0005440Y0012684D01*
G01X0005440Y0012684D02*
G01X0005439Y0012699D01*
G01X0005439Y0012699D02*
G01X0005439Y0012713D01*
G01X0005439Y0012713D02*
G01X0005439Y0012725D01*
G01X0005439Y0012725D02*
G01X0005438Y0012737D01*
G01X0005438Y0012737D02*
G01X0005438Y0012747D01*
G01X0005438Y0012747D02*
G01X0005437Y0012756D01*
G01X0005437Y0012756D02*
G01X0005437Y0012766D01*
G01X0005437Y0012766D02*
G01X0005436Y0012774D01*
G01X0005436Y0012774D02*
G01X0005435Y0012783D01*
G01X0005435Y0012783D02*
G01X0005435Y0012788D01*
G01X0005435Y0012788D02*
G01X0005430Y0012861D01*
G01X0005430Y0012861D02*
G01X0005425Y0012936D01*
G01X0005425Y0012936D02*
G01X0005419Y0013010D01*
G01X0005419Y0013010D02*
G01X0005413Y0013086D01*
G01X0005413Y0013086D02*
G01X0005407Y0013165D01*
G01X0005407Y0013165D02*
G01X0005401Y0013246D01*
G01X0005401Y0013246D02*
G01X0005394Y0013330D01*
G01X0005394Y0013330D02*
G01X0005386Y0013418D01*
G01X0005386Y0013418D02*
G01X0005378Y0013510D01*
G01X0005378Y0013510D02*
G01X0005369Y0013608D01*
G01X0005369Y0013608D02*
G01X0005360Y0013711D01*
G01X0005360Y0013711D02*
G01X0005350Y0013821D01*
G01X0005350Y0013821D02*
G01X0005339Y0013938D01*
G01X0005339Y0013938D02*
G01X0005327Y0014063D01*
G01X0005327Y0014063D02*
G01X0005314Y0014196D01*
G01X0005314Y0014196D02*
G01X0005301Y0014338D01*
G01X0005301Y0014338D02*
G01X0005292Y0014425D01*
G01X0005292Y0014425D02*
G01X0005288Y0014467D01*
G01X0005288Y0014467D02*
G01X0005284Y0014515D01*
G01X0005284Y0014515D02*
G01X0005278Y0014569D01*
G01X0005278Y0014569D02*
G01X0005272Y0014629D01*
G01X0005272Y0014629D02*
G01X0005266Y0014693D01*
G01X0005266Y0014693D02*
G01X0005259Y0014762D01*
G01X0005259Y0014762D02*
G01X0005252Y0014833D01*
G01X0005252Y0014833D02*
G01X0005245Y0014907D01*
G01X0005245Y0014907D02*
G01X0005237Y0014984D01*
G01X0005237Y0014984D02*
G01X0005230Y0015061D01*
G01X0005230Y0015061D02*
G01X0005222Y0015138D01*
G01X0005222Y0015138D02*
G01X0005214Y0015216D01*
G01X0005214Y0015216D02*
G01X0005206Y0015292D01*
G01X0005206Y0015292D02*
G01X0005199Y0015367D01*
G01X0005199Y0015367D02*
G01X0005192Y0015440D01*
G01X0005192Y0015440D02*
G01X0005185Y0015510D01*
G01X0005185Y0015510D02*
G01X0005178Y0015575D01*
G01X0005178Y0015575D02*
G01X0005172Y0015637D01*
G01X0005172Y0015637D02*
G01X0005166Y0015693D01*
G01X0005166Y0015693D02*
G01X0005161Y0015743D01*
G01X0005161Y0015743D02*
G01X0005157Y0015787D01*
G01X0005157Y0015787D02*
G01X0005153Y0015824D01*
G01X0005153Y0015824D02*
G01X0005150Y0015853D01*
G01X0005150Y0015853D02*
G01X0005148Y0015873D01*
G01X0005148Y0015873D02*
G01X0005147Y0015883D01*
G01X0005147Y0015883D02*
G01X0005144Y0015909D01*
G01X0005144Y0015909D02*
G01X0005173Y0015912D01*
G01X0005173Y0015912D02*
G01X0005192Y0015915D01*
G01X0005192Y0015915D02*
G01X0005209Y0015917D01*
G01X0005209Y0015917D02*
G01X0005216Y0015918D01*
G01X0005216Y0015918D02*
G01X0005227Y0015919D01*
G01X0005227Y0015919D02*
G01X0005230Y0015914D01*
G54D12*
G01X0010232Y0016315D03*
G01X0015232Y0016315D03*
G01X0014232Y0016315D03*
G01X0012232Y0016315D03*
G01X0016232Y0016315D03*
G01X0009232Y0016315D03*
G01X0013232Y0016315D03*
G01X0011232Y0016315D03*
G01X0008232Y0016315D03*
G01X0007232Y0016315D03*
G54D13*
G01X0001920Y0012424D03*
G01X0001920Y0010958D03*
G01X0001920Y0009465D03*
G01X0001920Y0007978D03*
G01X0001920Y0006487D03*
G01X0001920Y0005001D03*
G01X0001920Y0003510D03*
G01X0001920Y0002042D03*
G01X0001920Y0013893D03*
G01X0005488Y0012623D03*
G01X0005488Y0011157D03*
G01X0005501Y0009668D03*
G01X0005488Y0008188D03*
G01X0005500Y0006709D03*
G01X0005503Y0005226D03*
G01X0005488Y0003660D03*
G01X0005498Y0002097D03*
G01X0005187Y0015912D03*
M02*
